<svg id="approve-invoice" xmlns="http://www.w3.org/2000/svg" width="48.002" height="53.477" viewBox="0 0 48.002 53.477">
  <path id="Path_1840" data-name="Path 1840" d="M69.929,0H38.689a3.246,3.246,0,0,0-3.242,3.242V10.5a14.172,14.172,0,0,0,0,27.252V50.234a3.246,3.246,0,0,0,3.242,3.242H64.218a1.142,1.142,0,0,0,.808-.334l7.811-7.811a1.142,1.142,0,0,0,.334-.808V3.242A3.246,3.246,0,0,0,69.929,0ZM38.689,2.284h31.24a.959.959,0,0,1,.958.958V6.689H37.731V3.242A.959.959,0,0,1,38.689,2.284ZM27.454,24.124A11.886,11.886,0,1,1,39.34,36.011,11.9,11.9,0,0,1,27.454,24.124Zm10.277,26.11V38.2A14.148,14.148,0,0,0,50.02,33.427h7a1.142,1.142,0,1,0,0-2.284H51.646a14.068,14.068,0,0,0,1.81-5.791h3.56a1.142,1.142,0,1,0,0-2.284H53.471a14.067,14.067,0,0,0-1.728-5.79h5.274a1.142,1.142,0,1,0,0-2.284H50.168A14.148,14.148,0,0,0,37.73,10.046V8.973H70.887V43.381H66.318a3.246,3.246,0,0,0-3.242,3.242v4.569H38.689A.959.959,0,0,1,37.731,50.234Zm27.63-.657V46.624a.959.959,0,0,1,.958-.958h2.954Z" transform="translate(-25.17 0)" fill="#172ccb"/>
  <path id="Path_1841" data-name="Path 1841" d="M349.888,140.153h3.792a1.142,1.142,0,0,0,0-2.284h-3.792a1.142,1.142,0,1,0,0,2.284Z" transform="translate(-313.554 -122.874)" fill="#172ccb"/>
  <path id="Path_1842" data-name="Path 1842" d="M349.888,214.394h3.792a1.142,1.142,0,0,0,0-2.284h-3.792a1.142,1.142,0,0,0,0,2.284Z" transform="translate(-313.554 -189.041)" fill="#172ccb"/>
  <path id="Path_1843" data-name="Path 1843" d="M349.888,288.636h3.792a1.142,1.142,0,0,0,0-2.284h-3.792a1.142,1.142,0,0,0,0,2.284Z" transform="translate(-313.554 -255.209)" fill="#172ccb"/>
  <path id="Path_1844" data-name="Path 1844" d="M297.216,362.877a1.142,1.142,0,0,0,0-2.284H286.533a1.142,1.142,0,1,0,0,2.284Z" transform="translate(-257.09 -321.375)" fill="#172ccb"/>
  <path id="Path_1845" data-name="Path 1845" d="M86.911,152.661l-1.393-1.393a1.987,1.987,0,0,0-2.809,0L75.4,158.575l-2.02-2.02a1.986,1.986,0,0,0-2.809,0l-1.394,1.393a1.989,1.989,0,0,0,0,2.809L74,165.576a1.973,1.973,0,0,0,1.4.582h0a1.973,1.973,0,0,0,1.4-.582L86.912,155.47A1.989,1.989,0,0,0,86.911,152.661ZM75.4,163.75l-4.4-4.4.973-.973L74.594,161a1.142,1.142,0,0,0,1.615,0l7.9-7.9.973.973Z" transform="translate(-63.875 -134.297)" fill="#172ccb"/>
</svg>
