<svg xmlns="http://www.w3.org/2000/svg" width="117" height="117" viewBox="0 0 117 117">
  <g id="Group_20687" data-name="Group 20687" transform="translate(-879 -2598)">
    <rect id="Rectangle_23" data-name="Rectangle 23" width="117" height="117" rx="19" transform="translate(879 2598)" fill="#e7eafa"/>
    <g id="accounting_2_" data-name="accounting (2)" transform="translate(905 2624)">
      <path id="Path_1921" data-name="Path 1921" d="M65.7,12.8h-16.2v-1.08H49.5a1.07,1.07,0,0,0-.307-.763L40.553,2.316a1.069,1.069,0,0,0-.763-.306V2H11.717a1.08,1.08,0,0,0-1.08,1.08V12.8H3.08A1.08,1.08,0,0,0,2,13.877V54.905a1.08,1.08,0,0,0,1.08,1.08H31.152V60.3H24.674a1.08,1.08,0,0,0-.763.316l-4.319,4.319a1.08,1.08,0,0,0,.763,1.843H48.427a1.08,1.08,0,0,0,.763-1.843L44.871,60.62a1.08,1.08,0,0,0-.763-.316H37.63V55.985H65.7a1.08,1.08,0,0,0,1.08-1.08V13.877A1.08,1.08,0,0,0,65.7,12.8Zm-1.08,2.159v10.8H62.463V18.2a1.08,1.08,0,0,0-1.08-1.08H49.507V14.956ZM49.507,19.275H60.3v6.478h-10.8ZM40.869,5.686l4.951,4.951H40.869ZM12.8,4.159H38.71v7.558a1.08,1.08,0,0,0,1.08,1.08h7.558V25.753h-1.08a1.08,1.08,0,0,0-1.08,1.08V49.507H12.8ZM8.478,49.507V19.275h2.159V49.507ZM4.159,14.956h6.478v2.159H7.4a1.08,1.08,0,0,0-1.08,1.08V50.586a1.08,1.08,0,0,0,1.08,1.08H45.188v2.159H4.159ZM45.82,64.622H22.961l2.159-2.159H43.661ZM35.471,60.3H33.311V55.985h2.159Zm29.152-6.478H47.347V27.913H64.622Z" transform="translate(-2 -2)" fill="#172ccb"/>
      <path id="Path_1922" data-name="Path 1922" d="M28.638,25.275A8.638,8.638,0,1,0,20,16.638a8.638,8.638,0,0,0,8.638,8.638Zm6.381-9.717h-5.3v-5.3A6.487,6.487,0,0,1,35.019,15.558Zm-7.461-5.3v6.381a1.08,1.08,0,0,0,1.08,1.08h6.381a6.478,6.478,0,1,1-7.461-7.461Z" transform="translate(-0.566 -1.522)" fill="#172ccb"/>
      <path id="Path_1923" data-name="Path 1923" d="M14,26h2.159v2.159H14Z" transform="translate(-1.044 -0.087)" fill="#172ccb"/>
      <path id="Path_1924" data-name="Path 1924" d="M18,26H41.753v2.159H18Z" transform="translate(-0.725 -0.087)" fill="#172ccb"/>
      <path id="Path_1925" data-name="Path 1925" d="M14,30h2.159v2.159H14Z" transform="translate(-1.044 0.231)" fill="#172ccb"/>
      <path id="Path_1926" data-name="Path 1926" d="M18,30H41.753v2.159H18Z" transform="translate(-0.725 0.231)" fill="#172ccb"/>
      <path id="Path_1927" data-name="Path 1927" d="M14,34h2.159v2.159H14Z" transform="translate(-1.044 0.55)" fill="#172ccb"/>
      <path id="Path_1928" data-name="Path 1928" d="M18,34H41.753v2.159H18Z" transform="translate(-0.725 0.55)" fill="#172ccb"/>
      <path id="Path_1929" data-name="Path 1929" d="M14,38h2.159v2.159H14Z" transform="translate(-1.044 0.869)" fill="#172ccb"/>
      <path id="Path_1930" data-name="Path 1930" d="M18,38H41.753v2.159H18Z" transform="translate(-0.725 0.869)" fill="#172ccb"/>
      <path id="Path_1931" data-name="Path 1931" d="M14,42h2.159v2.159H14Z" transform="translate(-1.044 1.188)" fill="#172ccb"/>
      <path id="Path_1932" data-name="Path 1932" d="M18,42H41.753v2.159H18Z" transform="translate(-0.725 1.188)" fill="#172ccb"/>
      <path id="Path_1933" data-name="Path 1933" d="M46.08,35.638H59.036a1.08,1.08,0,0,0,1.08-1.08V28.08A1.08,1.08,0,0,0,59.036,27H46.08A1.08,1.08,0,0,0,45,28.08v6.478A1.08,1.08,0,0,0,46.08,35.638Zm1.08-6.478h10.8v4.319h-10.8Z" transform="translate(1.427 -0.008)" fill="#172ccb"/>
      <path id="Path_1934" data-name="Path 1934" d="M46.08,42.478H50.4a1.08,1.08,0,0,0,1.08-1.08V37.08A1.08,1.08,0,0,0,50.4,36H46.08A1.08,1.08,0,0,0,45,37.08V41.4A1.08,1.08,0,0,0,46.08,42.478Zm1.08-4.319h2.159v2.159H47.159Z" transform="translate(1.427 0.71)" fill="#172ccb"/>
      <path id="Path_1935" data-name="Path 1935" d="M58.4,36H54.08A1.08,1.08,0,0,0,53,37.08V41.4a1.08,1.08,0,0,0,1.08,1.08H58.4a1.08,1.08,0,0,0,1.08-1.08V37.08A1.08,1.08,0,0,0,58.4,36Zm-1.08,4.319H55.159V38.159h2.159Z" transform="translate(2.064 0.71)" fill="#172ccb"/>
      <path id="Path_1936" data-name="Path 1936" d="M46.08,49.478H50.4a1.08,1.08,0,0,0,1.08-1.08V44.08A1.08,1.08,0,0,0,50.4,43H46.08A1.08,1.08,0,0,0,45,44.08V48.4A1.08,1.08,0,0,0,46.08,49.478Zm1.08-4.319h2.159v2.159H47.159Z" transform="translate(1.427 1.267)" fill="#172ccb"/>
      <path id="Path_1937" data-name="Path 1937" d="M58.4,43H54.08A1.08,1.08,0,0,0,53,44.08V48.4a1.08,1.08,0,0,0,1.08,1.08H58.4a1.08,1.08,0,0,0,1.08-1.08V44.08A1.08,1.08,0,0,0,58.4,43Zm-1.08,4.319H55.159V45.159h2.159Z" transform="translate(2.064 1.267)" fill="#172ccb"/>
    </g>
  </g>
</svg>
