<svg id="Group_20688" data-name="Group 20688" xmlns="http://www.w3.org/2000/svg" width="133" height="132" viewBox="0 0 133 132">
  <ellipse id="Ellipse_4" data-name="Ellipse 4" cx="66.5" cy="66" rx="66.5" ry="66" fill="#fff8ed"/>
  <g id="open-book" transform="translate(40 40)">
    <path id="Path_1846" data-name="Path 1846" d="M249.276,282.924a.776.776,0,0,0-.776.776v9.316a.776.776,0,0,0,1.553,0V283.7A.776.776,0,0,0,249.276,282.924Z" transform="translate(-222.932 -253.637)" fill="#cbac07"/>
    <path id="Path_1847" data-name="Path 1847" d="M53.413,30.84a.776.776,0,0,0,.776-.776V6.568a1.835,1.835,0,0,0-2.7-1.579l-.528.3L48.472,2.755a.777.777,0,0,0-.727-.212,34.547,34.547,0,0,0-4.19,1.335V.777A.776.776,0,0,0,42.5.053,25.2,25.2,0,0,0,29.524,10.6a21.143,21.143,0,0,0-1.679,3.566A21.143,21.143,0,0,0,26.165,10.6,25.2,25.2,0,0,0,13.194.053a.776.776,0,0,0-1.059.723v3.1a34.557,34.557,0,0,0-4.19-1.335.777.777,0,0,0-.727.212L4.727,5.286l-.528-.3A1.835,1.835,0,0,0,1.5,6.568V39.2a1.814,1.814,0,0,0,.923,1.579L22.436,52.033a2.092,2.092,0,0,0,1.443.146A1.811,1.811,0,0,0,25.395,53h4.9a1.811,1.811,0,0,0,1.515-.821,1.789,1.789,0,0,0,1.443-.146L53.266,40.775A1.814,1.814,0,0,0,54.19,39.2V35.032a.777.777,0,0,0-1.553,0V39.2a.259.259,0,0,1-.132.226L32.492,50.68a.259.259,0,0,1-.386-.226v-32.2c-.029-.155-.034-.562.132-.655L52.251,6.343a.259.259,0,0,1,.386.226v23.5a.776.776,0,0,0,.776.776ZM42,1.936V4.5c-.733.312-1.51.667-2.314,1.067a33.307,33.307,0,0,0-9.341,6.751q.236-.455.516-.931A23.338,23.338,0,0,1,42,1.936ZM30.553,23.505H25.136v-1.9h5.417Zm-5.417,1.553h5.417V44.386H25.136Zm0,20.881h5.417v1.9H25.136Zm5.417-25.884H25.136v-1.8A.259.259,0,0,1,25.395,18h4.9a.259.259,0,0,1,.259.259ZM8.012,4.161a40.7,40.7,0,0,1,8.1,3.21A.777.777,0,0,0,16.834,6c-1.1-.58-2.162-1.075-3.147-1.494V1.936a23.361,23.361,0,0,1,11.1,9.387c.2.334.379.661.545.98a28.921,28.921,0,0,0-4.185-3.647.777.777,0,0,0-.908,1.26,24.859,24.859,0,0,1,6.391,6.527c-.9-.074-1.672.223-2.418-.2L6.129,6.075ZM23.455,50.677l-.258,0L3.185,39.422a.259.259,0,0,1-.132-.226V6.568a.262.262,0,0,1,.386-.226L23.451,17.6c.166.094.161.5.132.655v32.2A.251.251,0,0,1,23.455,50.677Zm7.1.511a.259.259,0,0,1-.259.259h-4.9a.259.259,0,0,1-.259-.259v-1.8h5.417Zm.923-34.942c-.76.428-1.5.134-2.417.2,3.04-4.657,7.744-7.7,11.286-9.465a40.631,40.631,0,0,1,7.332-2.817L49.56,6.075Z" transform="translate(-1.5 0)" fill="#cbac07"/>
    <path id="Path_1848" data-name="Path 1848" d="M333.714,130.091l-14.493,8.281a.777.777,0,0,0-.391.674v5.005a.783.783,0,0,0,1.162.674l14.493-8.281a.776.776,0,0,0,.391-.674v-5.005A.787.787,0,0,0,333.714,130.091Zm-.391,5.229-12.94,7.394V139.5l12.94-7.394Z" transform="translate(-285.981 -116.534)" fill="#cbac07"/>
  </g>
</svg>
