<svg xmlns="http://www.w3.org/2000/svg" width="52.677" height="52.674" viewBox="0 0 52.677 52.674">
  <g id="confirm_1_" data-name="confirm (1)" transform="translate(0)">
    <path id="Path_1861" data-name="Path 1861" d="M33.8,53H28.7A1.7,1.7,0,0,0,27,54.7v1.7a1.7,1.7,0,0,0,1.7,1.7h5.1a1.7,1.7,0,0,0,1.7-1.7V54.7A1.7,1.7,0,0,0,33.8,53Zm-5.1,3.4V54.7h5.1l0,1.7Z" transform="translate(-4.908 -8.821)" fill="#2c5b5b"/>
    <path id="Path_1862" data-name="Path 1862" d="M20.4,53H18.7A1.7,1.7,0,0,0,17,54.7v1.7a1.7,1.7,0,0,0,1.7,1.7h1.7a1.7,1.7,0,0,0,1.7-1.7V54.7A1.7,1.7,0,0,0,20.4,53Zm-1.7,3.4V54.7h1.7l0,1.7Z" transform="translate(-3.404 -8.821)" fill="#2c5b5b"/>
    <path id="Path_1863" data-name="Path 1863" d="M44.4,53H42.7A1.7,1.7,0,0,0,41,54.7v1.7a1.7,1.7,0,0,0,1.7,1.7h1.7a1.7,1.7,0,0,0,1.7-1.7V54.7A1.7,1.7,0,0,0,44.4,53Zm-1.7,3.4V54.7h1.7l0,1.7Z" transform="translate(-7.014 -8.821)" fill="#2c5b5b"/>
    <ellipse id="Ellipse_9" data-name="Ellipse 9" cx="0.5" cy="1" rx="0.5" ry="1" transform="translate(25.53 3)" fill="#2c5b5b"/>
    <path id="Path_1864" data-name="Path 1864" d="M51.125,16.293H43.479V5.248A4.253,4.253,0,0,0,39.231,1H15.443a4.253,4.253,0,0,0-4.248,4.248V17.992h-.468a5.978,5.978,0,0,0-2.644.62L4.2,20.541H1.038L1,35.833H4.115l1.812,1.359A5.979,5.979,0,0,0,9.5,38.382h1.7V49.426a4.253,4.253,0,0,0,4.248,4.248H39.231a4.253,4.253,0,0,0,4.248-4.248V34.984h7.646a2.552,2.552,0,0,0,2.549-2.549V18.841A2.552,2.552,0,0,0,51.125,16.293Zm-7.646,3.4v1.7h-1.7v-3.4h5.1v3.4h-1.7v-1.7ZM41.78,5.248V7.8H30.713a4.2,4.2,0,0,0,.872-2.549V2.7h7.646A2.552,2.552,0,0,1,41.78,5.248Zm-16.992,0V2.7h5.1V5.248a2.549,2.549,0,0,1-5.1,0ZM15.443,2.7h7.646V5.248A4.2,4.2,0,0,0,23.961,7.8H12.894V5.248A2.552,2.552,0,0,1,15.443,2.7Zm-8.5,33.134-2.266-1.7H2.7L2.732,22.24H4.6l4.241-2.106a4.282,4.282,0,0,1,1.889-.443h3.49a6.229,6.229,0,0,0,2.769-.654l1.98-.99a.545.545,0,0,1,.76.551,4.5,4.5,0,0,1-4.492,4.492H12.08v1.7H30.735a.85.85,0,0,1,0,1.7H17.142v1.7h3.4a.85.85,0,0,1,0,1.7h-3.4v1.7h3.4a.85.85,0,1,1,0,1.7h-3.4v1.7h1.7a.85.85,0,1,1,0,1.7H9.5A4.272,4.272,0,0,1,6.947,35.833ZM39.231,51.975H15.443a2.552,2.552,0,0,1-2.549-2.549V43.479H41.78v5.947A2.552,2.552,0,0,1,39.231,51.975Zm2.549-10.2H12.894v-3.4h5.947a2.54,2.54,0,0,0,2.362-3.5,2.526,2.526,0,0,0,1.223-4.149,2.47,2.47,0,0,0,.506-2.549h7.8a2.549,2.549,0,0,0,0-5.1H19.471a6.281,6.281,0,0,0,1.954-4.572,2.225,2.225,0,0,0-3.219-1.99l-1.98.99a4.507,4.507,0,0,1-2.008.475H12.894V9.5H41.78v6.8H37.532a2.552,2.552,0,0,0-2.549,2.549V32.435a2.552,2.552,0,0,0,2.549,2.549H41.78Zm10.2-9.345a.85.85,0,0,1-.85.85H37.532a.85.85,0,0,1-.85-.85V18.841a.85.85,0,0,1,.85-.85h2.549v5.1h8.5v-5.1h2.549a.85.85,0,0,1,.85.85Z" transform="translate(-0.997 -1)" fill="#2c5b5b"/>
    <path id="Path_1865" data-name="Path 1865" d="M53,35h1.7v1.7H53Z" transform="translate(-8.819 -6.114)" fill="#2c5b5b"/>
    <path id="Path_1866" data-name="Path 1866" d="M57,35h1.7v1.7H57Z" transform="translate(-9.421 -6.114)" fill="#2c5b5b"/>
    <path id="Path_1867" data-name="Path 1867" d="M34.938,14.649a5.11,5.11,0,1,0,.907,1.5l2.651-2.651-1.2-1.2ZM34.5,17.991a3.441,3.441,0,1,1-.771-2.129L31.1,18.489l-1.1-1.1-1.2,1.2,2.3,2.3,3.352-3.352A3.311,3.311,0,0,1,34.5,17.991Z" transform="translate(-4.758 -2.699)" fill="#2c5b5b"/>
    <path id="Path_1868" data-name="Path 1868" d="M29,41h8.5v1.7H29Z" transform="translate(-5.209 -7.016)" fill="#2c5b5b"/>
    <path id="Path_1869" data-name="Path 1869" d="M29,45h8.5v1.7H29Z" transform="translate(-5.209 -7.618)" fill="#2c5b5b"/>
  </g>
</svg>
