<svg xmlns="http://www.w3.org/2000/svg" width="31.001" height="31.001" viewBox="0 0 31.001 31.001">
  <path id="Exclusion_1" data-name="Exclusion 1" d="M28,31H3a3,3,0,0,1-3-3V3A3,3,0,0,1,3,0H28a3,3,0,0,1,3,3V28A3,3,0,0,1,28,31ZM15.743,5.561c-1.77,0-3.341.027-4.1.07a5.872,5.872,0,0,0-4.165,1.6A5.874,5.874,0,0,0,5.872,11.4c-.093,1.648-.093,6.554,0,8.2a5.844,5.844,0,0,0,1.606,4.165,5.9,5.9,0,0,0,4.165,1.606c.76.043,2.331.07,4.1.07s3.341-.027,4.1-.07a5.847,5.847,0,0,0,4.165-1.606A5.885,5.885,0,0,0,25.615,19.6c.093-1.647.093-6.55,0-8.2a5.844,5.844,0,0,0-1.606-4.165A5.887,5.887,0,0,0,19.844,5.63C19.085,5.588,17.513,5.561,15.743,5.561ZM17.5,23.66c-.373,0-.732,0-1.048-.007-.259,0-.5-.005-.708-.005s-.436,0-.693,0c-.309,0-.659.006-1.023.006a14.263,14.263,0,0,1-4.144-.411A3.355,3.355,0,0,1,8,21.36a17.9,17.9,0,0,1-.4-5.152c0-.259.005-.5.005-.708s0-.436,0-.693A18.1,18.1,0,0,1,8,9.64,3.354,3.354,0,0,1,9.886,7.751a14,14,0,0,1,4.1-.412c.373,0,.732,0,1.048.007.259,0,.5.005.708.005s.436,0,.693,0c.309,0,.659-.006,1.023-.006a14.26,14.26,0,0,1,4.143.411,3.356,3.356,0,0,1,1.89,1.889,17.9,17.9,0,0,1,.4,5.152c0,.259-.005.5-.005.708s0,.448.005.706a17.885,17.885,0,0,1-.4,5.154,3.355,3.355,0,0,1-1.89,1.889A13.991,13.991,0,0,1,17.5,23.66ZM15.746,10.4a5.1,5.1,0,1,0,5.1,5.1A5.1,5.1,0,0,0,15.746,10.4Zm5.3-1.4A1.188,1.188,0,1,0,22.239,10.2,1.19,1.19,0,0,0,21.05,9.006Zm-5.3,9.807A3.314,3.314,0,1,1,19.058,15.5,3.318,3.318,0,0,1,15.746,18.814Z" transform="translate(0 0)" fill="#111f37"/>
</svg>
