<svg xmlns="http://www.w3.org/2000/svg" width="133" height="132" viewBox="0 0 133 132">
  <g id="Group_20692" data-name="Group 20692" transform="translate(-1501 -1202)">
    <ellipse id="Ellipse_8" data-name="Ellipse 8" cx="66.5" cy="66" rx="66.5" ry="66" transform="translate(1501 1202)" fill="#ff9a72" opacity="0.22"/>
    <g id="income_1_" data-name="income (1)" transform="translate(1542.508 1241)">
      <path id="Path_1871" data-name="Path 1871" d="M65.848,272.532a.778.778,0,0,0-.778.778v21.022a1.435,1.435,0,0,1-1.433,1.433H45.318a1.434,1.434,0,0,1-1.433-1.433v-2.068a.778.778,0,1,0-1.556,0v2.068a2.969,2.969,0,0,0,.367,1.433H19a.26.26,0,0,1-.259-.259V276.738a.778.778,0,1,0-1.556,0v18.767A1.817,1.817,0,0,0,19,297.321H63.637a2.992,2.992,0,0,0,2.989-2.989V273.31A.778.778,0,0,0,65.848,272.532Z" transform="translate(-17.183 -244.321)" fill="#cc7e5e"/>
      <path id="Path_1872" data-name="Path 1872" d="M63.638,16.706h-7.52V10.417a.783.783,0,0,0-.228-.55L46.251.228A.783.783,0,0,0,45.7,0H19a1.817,1.817,0,0,0-1.815,1.815V29.306a.778.778,0,1,0,1.556,0V1.815A.26.26,0,0,1,19,1.556H44.923V8.343A2.856,2.856,0,0,0,47.775,11.2h6.787v5.51H45.319a2.992,2.992,0,0,0-2.989,2.989v.122H30a.778.778,0,0,0,0,1.556H42.33v5.284H30a.778.778,0,0,0,0,1.556H42.33V33.5H30a.778.778,0,0,0,0,1.556H42.33v5.284H30a.778.778,0,0,0,0,1.556H42.33v2.942a.778.778,0,0,0,1.556,0V19.694a1.434,1.434,0,0,1,1.433-1.433H63.638a1.435,1.435,0,0,1,1.433,1.433v6.184a.778.778,0,0,0,1.556,0V19.694a2.992,2.992,0,0,0-2.989-2.989ZM46.479,8.343V2.656l6.983,6.983H47.775A1.3,1.3,0,0,1,46.479,8.343Z" transform="translate(-17.184 0)" fill="#cc7e5e"/>
      <path id="Path_1873" data-name="Path 1873" d="M314.74,197.844a1.817,1.817,0,0,0-1.815-1.815H300.009a1.817,1.817,0,0,0-1.815,1.815v4.392a1.817,1.817,0,0,0,1.815,1.815h12.916a1.817,1.817,0,0,0,1.815-1.815Zm-1.556,4.392a.26.26,0,0,1-.259.259H300.009a.26.26,0,0,1-.259-.259v-4.392a.26.26,0,0,1,.259-.259h12.916a.26.26,0,0,1,.259.259Z" transform="translate(-269.105 -175.737)" fill="#cc7e5e"/>
      <path id="Path_1874" data-name="Path 1874" d="M298.194,307.372a1.739,1.739,0,0,0,1.737,1.737h1.481a1.739,1.739,0,0,0,1.737-1.737v-1.481a1.739,1.739,0,0,0-1.737-1.737h-1.481a1.739,1.739,0,0,0-1.737,1.737Zm1.556-1.481a.181.181,0,0,1,.181-.181h1.481a.181.181,0,0,1,.181.181v1.481a.181.181,0,0,1-.181.181h-1.481a.181.181,0,0,1-.181-.181Z" transform="translate(-269.105 -272.669)" fill="#cc7e5e"/>
      <path id="Path_1875" data-name="Path 1875" d="M359.137,305.892a1.739,1.739,0,0,0-1.737-1.737h-1.481a1.739,1.739,0,0,0-1.737,1.737v1.481a1.739,1.739,0,0,0,1.737,1.737H357.4a1.739,1.739,0,0,0,1.737-1.737Zm-1.556,1.481a.181.181,0,0,1-.181.181h-1.481a.181.181,0,0,1-.181-.181v-1.481a.181.181,0,0,1,.181-.181H357.4a.181.181,0,0,1,.181.181v1.481Z" transform="translate(-319.297 -272.67)" fill="#cc7e5e"/>
      <path id="Path_1876" data-name="Path 1876" d="M415.124,305.892a1.739,1.739,0,0,0-1.737-1.737h-1.481a1.739,1.739,0,0,0-1.737,1.737v1.481a1.739,1.739,0,0,0,1.737,1.737h1.481a1.739,1.739,0,0,0,1.737-1.737Zm-1.556,1.481a.181.181,0,0,1-.181.181h-1.481a.181.181,0,0,1-.181-.181v-1.481a.181.181,0,0,1,.181-.181h1.481a.181.181,0,0,1,.181.181Z" transform="translate(-369.489 -272.67)" fill="#cc7e5e"/>
      <path id="Path_1877" data-name="Path 1877" d="M298.194,368.643a1.739,1.739,0,0,0,1.737,1.737h1.481a1.739,1.739,0,0,0,1.737-1.737v-1.481a1.739,1.739,0,0,0-1.737-1.737h-1.481a1.739,1.739,0,0,0-1.737,1.737Zm1.556-1.481a.181.181,0,0,1,.181-.181h1.481a.181.181,0,0,1,.181.181v1.481a.181.181,0,0,1-.181.181h-1.481a.181.181,0,0,1-.181-.181Z" transform="translate(-269.105 -327.598)" fill="#cc7e5e"/>
      <path id="Path_1878" data-name="Path 1878" d="M359.137,367.162a1.739,1.739,0,0,0-1.737-1.737h-1.481a1.739,1.739,0,0,0-1.737,1.737v1.481a1.739,1.739,0,0,0,1.737,1.737H357.4a1.739,1.739,0,0,0,1.737-1.737Zm-1.556,1.481a.181.181,0,0,1-.181.181h-1.481a.181.181,0,0,1-.181-.181v-1.481a.181.181,0,0,1,.181-.181H357.4a.181.181,0,0,1,.181.181v1.481Z" transform="translate(-319.297 -327.598)" fill="#cc7e5e"/>
      <path id="Path_1879" data-name="Path 1879" d="M298.194,429.913a1.739,1.739,0,0,0,1.737,1.737h1.481a1.739,1.739,0,0,0,1.737-1.737v-1.481a1.739,1.739,0,0,0-1.737-1.737h-1.481a1.739,1.739,0,0,0-1.737,1.737Zm1.556-1.481a.181.181,0,0,1,.181-.181h1.481a.181.181,0,0,1,.181.181v1.481a.181.181,0,0,1-.181.181h-1.481a.181.181,0,0,1-.181-.181Z" transform="translate(-269.105 -382.525)" fill="#cc7e5e"/>
      <path id="Path_1880" data-name="Path 1880" d="M357.4,426.7h-1.481a1.739,1.739,0,0,0-1.737,1.737v1.481a1.739,1.739,0,0,0,1.737,1.737H357.4a1.739,1.739,0,0,0,1.737-1.737v-1.481A1.739,1.739,0,0,0,357.4,426.7Zm.181,3.218a.181.181,0,0,1-.181.181h-1.481a.181.181,0,0,1-.181-.181v-1.481a.181.181,0,0,1,.181-.181H357.4a.181.181,0,0,1,.181.181v1.481Z" transform="translate(-319.297 -382.526)" fill="#cc7e5e"/>
      <path id="Path_1881" data-name="Path 1881" d="M413.24,365.425h-1.187a1.886,1.886,0,0,0-1.884,1.884v7.53a1.886,1.886,0,0,0,1.884,1.884h1.187a1.886,1.886,0,0,0,1.884-1.884v-7.53A1.886,1.886,0,0,0,413.24,365.425Zm.328,9.414a.328.328,0,0,1-.328.328h-1.187a.328.328,0,0,1-.328-.328v-7.53a.328.328,0,0,1,.328-.328h1.187a.328.328,0,0,1,.328.328Z" transform="translate(-369.489 -327.598)" fill="#cc7e5e"/>
      <path id="Path_1882" data-name="Path 1882" d="M70.471,126.911h3.105a.778.778,0,0,0,0-1.556H70.471a.778.778,0,0,0,0,1.556Z" transform="translate(-64.257 -112.379)" fill="#cc7e5e"/>
      <path id="Path_1883" data-name="Path 1883" d="M134.285,126.911h14.971a.778.778,0,0,0,0-1.556H134.285a.778.778,0,1,0,0,1.556Z" transform="translate(-121.465 -112.379)" fill="#cc7e5e"/>
      <path id="Path_1884" data-name="Path 1884" d="M70.471,192.984h3.105a.778.778,0,0,0,0-1.556H70.471a.778.778,0,0,0,0,1.556Z" transform="translate(-64.257 -171.612)" fill="#cc7e5e"/>
      <path id="Path_1885" data-name="Path 1885" d="M70.471,259.058h3.105a.778.778,0,0,0,0-1.556H70.471a.778.778,0,0,0,0,1.556Z" transform="translate(-64.257 -230.846)" fill="#cc7e5e"/>
      <path id="Path_1886" data-name="Path 1886" d="M70.471,325.132h3.105a.778.778,0,0,0,0-1.556H70.471a.778.778,0,0,0,0,1.556Z" transform="translate(-64.257 -290.081)" fill="#cc7e5e"/>
      <path id="Path_1887" data-name="Path 1887" d="M70.471,391.206h3.105a.778.778,0,1,0,0-1.556H70.471a.778.778,0,1,0,0,1.556Z" transform="translate(-64.257 -349.315)" fill="#cc7e5e"/>
    </g>
  </g>
</svg>
