<svg xmlns="http://www.w3.org/2000/svg" width="29.312" height="29.312" viewBox="0 0 29.312 29.312">
  <path id="Icon_awesome-linkedin" data-name="Icon awesome-linkedin" d="M27.219,2.25H2.087A2.1,2.1,0,0,0,0,4.363V29.449a2.1,2.1,0,0,0,2.087,2.113H27.219a2.108,2.108,0,0,0,2.094-2.113V4.363A2.108,2.108,0,0,0,27.219,2.25ZM8.859,27.375H4.515V13.386H8.866V27.375Zm-2.172-15.9A2.519,2.519,0,1,1,9.206,8.956a2.52,2.52,0,0,1-2.519,2.519Zm18.458,15.9H20.8v-6.8c0-1.623-.033-3.71-2.257-3.71-2.264,0-2.611,1.767-2.611,3.592v6.922H11.588V13.386h4.168V15.3h.059a4.576,4.576,0,0,1,4.116-2.257c4.4,0,5.215,2.9,5.215,6.667Z" transform="translate(0 -2.25)" fill="#111f37"/>
</svg>
