<svg xmlns="http://www.w3.org/2000/svg" width="29.312" height="29.312" viewBox="0 0 29.312 29.312">
  <path id="Icon_awesome-facebook-square" data-name="Icon awesome-facebook-square" d="M26.172,2.25H3.141A3.141,3.141,0,0,0,0,5.391V28.422a3.141,3.141,0,0,0,3.141,3.141h8.98V21.6H8V16.906h4.122V13.331c0-4.066,2.421-6.313,6.129-6.313a24.972,24.972,0,0,1,3.633.317v3.991H19.836a2.345,2.345,0,0,0-2.645,2.534v3.046h4.5l-.72,4.691H17.192v9.965h8.98a3.141,3.141,0,0,0,3.141-3.141V5.391A3.141,3.141,0,0,0,26.172,2.25Z" transform="translate(0 -2.25)" fill="#111f37"/>
</svg>
