<svg xmlns="http://www.w3.org/2000/svg" width="20.45" height="20.454" viewBox="0 0 20.45 20.454">
  <path id="Icon_awesome-globe" data-name="Icon awesome-globe" d="M13.877,6.831c-.6-3.683-2.008-6.268-3.65-6.268S7.176,3.148,6.578,6.831ZM6.268,10.79A25.848,25.848,0,0,0,6.4,13.429h7.642a25.848,25.848,0,0,0,.136-2.639,25.848,25.848,0,0,0-.136-2.639H6.4A25.848,25.848,0,0,0,6.268,10.79Zm13.39-3.959A10.249,10.249,0,0,0,13.143.991,13.918,13.918,0,0,1,15.2,6.831ZM7.307.991A10.242,10.242,0,0,0,.8,6.831H5.25A13.862,13.862,0,0,1,7.307.991ZM20.1,8.15H15.37c.087.866.136,1.753.136,2.639s-.049,1.773-.136,2.639H20.1a10.139,10.139,0,0,0,.355-2.639A10.316,10.316,0,0,0,20.1,8.15ZM4.949,10.79c0-.887.049-1.773.136-2.639H.355a10,10,0,0,0,0,5.279H5.081C5,12.563,4.949,11.676,4.949,10.79Zm1.629,3.959c.6,3.683,2.008,6.268,3.65,6.268s3.052-2.586,3.65-6.268Zm6.569,5.839a10.259,10.259,0,0,0,6.516-5.839H15.209a13.918,13.918,0,0,1-2.062,5.839ZM.8,14.749a10.249,10.249,0,0,0,6.516,5.839A13.918,13.918,0,0,1,5.25,14.749H.8Z" transform="translate(0 -0.563)" fill="#31337c"/>
</svg>
