<svg xmlns="http://www.w3.org/2000/svg" width="29.312" height="29.312" viewBox="0 0 29.312 29.312">
  <path id="Icon_awesome-twitter-square" data-name="Icon awesome-twitter-square" d="M26.172,2.25H3.141A3.141,3.141,0,0,0,0,5.391V28.422a3.141,3.141,0,0,0,3.141,3.141H26.172a3.141,3.141,0,0,0,3.141-3.141V5.391A3.141,3.141,0,0,0,26.172,2.25Zm-3.2,10.39c.013.183.013.373.013.556A12.126,12.126,0,0,1,10.776,25.405a12.153,12.153,0,0,1-6.589-1.924,9.04,9.04,0,0,0,1.034.052A8.6,8.6,0,0,0,10.547,21.7a4.3,4.3,0,0,1-4.011-2.977,4.625,4.625,0,0,0,1.937-.079,4.292,4.292,0,0,1-3.435-4.214v-.052a4.288,4.288,0,0,0,1.937.543,4.282,4.282,0,0,1-1.911-3.572,4.238,4.238,0,0,1,.582-2.166,12.185,12.185,0,0,0,8.846,4.488,4.3,4.3,0,0,1,7.322-3.919,8.409,8.409,0,0,0,2.722-1.034,4.28,4.28,0,0,1-1.884,2.362,8.54,8.54,0,0,0,2.473-.667A9.032,9.032,0,0,1,22.972,12.64Z" transform="translate(0 -2.25)" fill="#111f37"/>
</svg>
