<svg xmlns="http://www.w3.org/2000/svg" width="81" height="81" viewBox="0 0 81 81">
  <g id="Group_20688" data-name="Group 20688" transform="translate(-329 -4626)">
    <rect id="Rectangle_35" data-name="Rectangle 35" width="81" height="81" transform="translate(329 4626)" fill="#0857f7"/>
    <path id="Path_27876" data-name="Path 27876" d="M16,55.318a4.921,4.921,0,0,0,7.638,4.107l7.953,7.953a4.924,4.924,0,1,0,8.933,3.7H50.571a4.924,4.924,0,1,0,8.932-3.7l4.284-4.284L62.394,61.7,58.11,65.986a4.921,4.921,0,0,0-7.54,3.121H40.524A4.937,4.937,0,0,0,38.4,65.98l.573-1.432-1.829-.732-.572,1.43a4.9,4.9,0,0,0-3.591.739L25.032,58.03a4.9,4.9,0,0,0,.739-3.591L33.11,51.5l-.732-1.829-7.342,2.936a4.937,4.937,0,0,0-3.127-2.12V40.444a4.937,4.937,0,0,0,3.127-2.12l7.34,2.936.732-1.829L25.769,36.5A4.9,4.9,0,0,0,25.03,32.9l6.131-6.132-1.392-1.393-6.131,6.132a4.924,4.924,0,1,0-3.7,8.933V50.491A4.933,4.933,0,0,0,16,55.318ZM55.4,67.137a2.955,2.955,0,1,1-2.955,2.955A2.955,2.955,0,0,1,55.4,67.137Zm-19.7,0a2.955,2.955,0,1,1-2.955,2.955A2.955,2.955,0,0,1,35.7,67.137ZM17.97,35.62a2.955,2.955,0,1,1,2.955,2.955A2.955,2.955,0,0,1,17.97,35.62Zm2.955,16.743a2.955,2.955,0,1,1-2.955,2.955,2.955,2.955,0,0,1,2.955-2.955ZM75.094,35.618a4.921,4.921,0,0,0-7.638-4.107L59.5,23.558a4.924,4.924,0,1,0-8.932-3.7H40.524a4.93,4.93,0,1,0-3.948,5.83l.572,1.43,1.829-.732L38.4,24.958a4.937,4.937,0,0,0,2.121-3.128H50.571a4.937,4.937,0,0,0,2.12,3.127l-.967,2.417,1.829.732.966-2.415a4.9,4.9,0,0,0,3.591-.739L66.063,32.9a4.9,4.9,0,0,0-.739,3.591l-7.34,2.936.732,1.829,7.341-2.937a4.937,4.937,0,0,0,3.127,2.121V50.491a4.937,4.937,0,0,0-3.127,2.12l-2.909-1.164-.732,1.829,2.908,1.163a4.9,4.9,0,0,0,.739,3.591l-1.945,1.945,1.393,1.393,1.945-1.945a4.924,4.924,0,1,0,3.7-8.933V40.444a4.933,4.933,0,0,0,3.94-4.826ZM35.7,23.8a2.955,2.955,0,1,1,2.955-2.955A2.955,2.955,0,0,1,35.7,23.8Zm19.7,0a2.955,2.955,0,1,1,2.955-2.955A2.955,2.955,0,0,1,55.4,23.8ZM73.124,55.316a2.955,2.955,0,1,1-2.955-2.955,2.955,2.955,0,0,1,2.955,2.955ZM70.169,38.573a2.955,2.955,0,1,1,2.955-2.955,2.955,2.955,0,0,1-2.955,2.955ZM36.683,36.6V59.256a1.972,1.972,0,0,0,1.97,1.97H49.487V63.2H38.653a3.944,3.944,0,0,1-3.94-3.94V36.6ZM59.336,60.241V49.477a3.914,3.914,0,0,0-1.152-2.785l-1.8-1.8V51.95l1.681,1.681-1.393,1.4-1.97-1.97L51.372,49.73a1.1,1.1,0,0,0-1.561,1.562l3.328,3.328a.985.985,0,0,1,.123,1.243,5.146,5.146,0,0,0-.32,5.144l.382.763a.984.984,0,0,1,.1.441V63.2h-1.97v-.751l-.278-.555a7.122,7.122,0,0,1,.03-6.41l-2.791-2.791a3.074,3.074,0,1,1,4.348-4.348l1.646,1.643V32.663a1.972,1.972,0,0,0-1.97-1.97H50.1l-.713,1.425a.985.985,0,0,1-.881.544H42.592a.985.985,0,0,1-.881-.544L41,30.694H38.653a1.972,1.972,0,0,0-1.97,1.97v1.972h-1.97V32.663a3.944,3.944,0,0,1,3.939-3.938H52.442a3.944,3.944,0,0,1,3.94,3.94V42.1L59.575,45.3a5.871,5.871,0,0,1,1.731,4.179V60.241ZM43.577,57.286h3.94v1.97H43.577Zm4.228-12.107a3.2,3.2,0,0,0-4.517,0L41.9,43.786a5.169,5.169,0,0,1,7.3,0ZM50.76,42.7a7.372,7.372,0,0,0-10.426,0l-1.393-1.393a9.352,9.352,0,0,1,13.212,0Zm-4.228,5.72v1.97h-1.97v-1.97Zm-5.909,0h1.97v1.97h-1.97Z" transform="translate(324 4621.09)" fill="#fff"/>
  </g>
</svg>
