<svg xmlns="http://www.w3.org/2000/svg" width="218.38" height="218.442" viewBox="0 0 218.38 218.442">
  <path id="Path_27876" data-name="Path 27876" d="M16,161.539a18.187,18.187,0,0,0,28.226,15.176l29.391,29.391a18.2,18.2,0,1,0,33.011,13.669h37.128a18.2,18.2,0,1,0,33.007-13.667L192.6,190.275l-5.147-5.147L171.616,200.96A18.185,18.185,0,0,0,143.754,212.5H106.628a18.244,18.244,0,0,0-7.834-11.556l2.117-5.291-6.759-2.7-2.113,5.286a18.105,18.105,0,0,0-13.269,2.73l-29.392-29.4a18.105,18.105,0,0,0,2.73-13.269L79.23,147.444l-2.7-6.759L49.394,151.534A18.244,18.244,0,0,0,37.838,143.7V106.574A18.244,18.244,0,0,0,49.394,98.74l27.123,10.85,2.7-6.759L52.1,91.98a18.105,18.105,0,0,0-2.73-13.269l22.658-22.66L66.884,50.9,44.226,73.564a18.2,18.2,0,1,0-13.667,33.01V143.7A18.229,18.229,0,0,0,16,161.539Zm145.587,43.676a10.919,10.919,0,1,1-10.919,10.919,10.919,10.919,0,0,1,10.919-10.919Zm-72.793,0a10.919,10.919,0,1,1-10.919,10.919A10.919,10.919,0,0,1,88.794,205.215ZM23.281,88.747a13.907,13.907,0,1,0,0-.009ZM34.2,150.62a10.919,10.919,0,1,1-10.919,10.919A10.919,10.919,0,0,1,34.2,150.62ZM234.38,88.739a18.187,18.187,0,0,0-28.226-15.176L176.763,44.173a18.2,18.2,0,1,0-33.009-13.662H106.628A18.218,18.218,0,1,0,92.037,52.055l2.113,5.286,6.759-2.7L98.79,49.346a18.244,18.244,0,0,0,7.838-11.561h37.128A18.244,18.244,0,0,0,151.59,49.34l-3.572,8.931,6.759,2.7,3.57-8.926a18.1,18.1,0,0,0,13.269-2.73L201.006,78.71a18.105,18.105,0,0,0-2.73,13.269l-27.124,10.849,2.7,6.759,27.129-10.852a18.244,18.244,0,0,0,11.556,7.839V143.7a18.244,18.244,0,0,0-11.556,7.834l-10.751-4.3-2.7,6.759,10.745,4.3a18.105,18.105,0,0,0,2.73,13.269l-7.188,7.188,5.147,5.147,7.188-7.188A18.2,18.2,0,1,0,219.82,143.7V106.574A18.229,18.229,0,0,0,234.38,88.739ZM88.793,45.063A10.919,10.919,0,1,1,99.712,34.144,10.919,10.919,0,0,1,88.793,45.063Zm72.793,0A10.919,10.919,0,1,1,172.5,34.144a10.919,10.919,0,0,1-10.919,10.919ZM227.1,161.532a13.847,13.847,0,1,0,0,.009ZM216.18,99.658A10.919,10.919,0,1,1,227.1,88.739,10.919,10.919,0,0,1,216.18,99.658ZM92.433,92.38v83.712a7.288,7.288,0,0,0,7.279,7.279h40.037v7.279H99.712a14.576,14.576,0,0,1-14.559-14.559V92.38Zm83.712,87.352V139.953a14.463,14.463,0,0,0-4.257-10.293L165.225,123v26.095l6.213,6.213-5.147,5.162-7.279-7.279-12.3-12.3a4.081,4.081,0,0,0-5.77,5.772l12.3,12.3a3.64,3.64,0,0,1,.455,4.593,19.017,19.017,0,0,0-1.183,19.01l1.41,2.82a3.637,3.637,0,0,1,.383,1.629v3.64h-7.281v-2.776L146,185.824a26.32,26.32,0,0,1,.109-23.689L135.8,151.821a11.361,11.361,0,1,1,16.068-16.066l6.083,6.071V77.82a7.288,7.288,0,0,0-7.279-7.279H142l-2.633,5.267a3.64,3.64,0,0,1-3.255,2.012H114.271a3.64,3.64,0,0,1-3.255-2.011l-2.634-5.267h-8.67a7.288,7.288,0,0,0-7.279,7.279v7.286H85.154V77.82A14.576,14.576,0,0,1,99.712,63.268h50.956a14.576,14.576,0,0,1,14.559,14.559v34.882l11.8,11.8a21.7,21.7,0,0,1,6.4,15.442v39.778Zm-58.235-10.919h14.559v7.279H117.911Zm15.625-44.742a11.815,11.815,0,0,0-16.691,0l-5.147-5.147a19.1,19.1,0,0,1,26.985,0Zm10.919-9.153a27.244,27.244,0,0,0-38.529,0l-5.147-5.147a34.561,34.561,0,0,1,48.823,0ZM128.83,136.055v7.279H121.55v-7.279Zm-21.838,0h7.279v7.279h-7.279Z" transform="translate(-16 -15.911)" fill="#b0c9fd" opacity="0.18"/>
</svg>
