<svg xmlns="http://www.w3.org/2000/svg" width="218.333" height="218.442" viewBox="0 0 218.333 218.442">
  <g id="Analysis" opacity="0.06">
    <path id="Path_27890" data-name="Path 27890" d="M202.242,118.5h-4.664a68.757,68.757,0,0,0,8.3-32.766c0-1.275-.037-2.591-.109-3.859a3.64,3.64,0,0,0-3.64-3.422H140.347V20.2a3.64,3.64,0,0,0-3.64-3.64,68.267,68.267,0,0,0-25.486,4.915V5.64A3.64,3.64,0,0,0,107.581,2H31.126a3.761,3.761,0,0,0-2.591,1.055L3.055,28.54A3.761,3.761,0,0,0,2,31.131v91.012a3.64,3.64,0,0,0,3.64,3.64H16.559V216.8a3.64,3.64,0,0,0,3.64,3.64H202.242a3.64,3.64,0,0,0,3.64-3.64V122.144a3.64,3.64,0,0,0-3.64-3.642ZM111.221,29.414a61.474,61.474,0,0,1,21.838-5.461V82.1a3.64,3.64,0,0,0,3.64,3.64h61.892a61.222,61.222,0,0,1-9.466,32.766H111.212ZM27.486,14.424V27.493H14.414ZM9.281,118.5V34.766H31.118a3.64,3.64,0,0,0,3.64-3.64V9.281H103.94V118.5ZM198.6,213.159H23.838V125.784H198.591Z" transform="translate(-2 -2)" fill="#e8492d"/>
    <path id="Path_27891" data-name="Path 27891" d="M45.64,2A3.64,3.64,0,0,0,42,5.64V67.532a3.64,3.64,0,0,0,3.64,3.64h65.532v-.037a3.618,3.618,0,0,0,2.548-1.092,3.855,3.855,0,0,0,.983-2.695A69.115,69.115,0,0,0,45.64,2Zm3.64,61.892V9.39A61.812,61.812,0,0,1,107.1,63.89Z" transform="translate(103.627 -2)" fill="#e8492d"/>
    <path id="Path_27892" data-name="Path 27892" d="M166.55,52.563a10.954,10.954,0,0,1-10.919-10.919A3.64,3.64,0,0,0,151.987,38H28.2a3.64,3.64,0,0,0-3.64,3.64A10.954,10.954,0,0,1,13.644,52.559,3.64,3.64,0,0,0,10,56.2V92.61a3.64,3.64,0,0,0,3.64,3.64,10.954,10.954,0,0,1,10.919,10.919,3.64,3.64,0,0,0,3.64,3.64H151.987a3.64,3.64,0,0,0,3.64-3.64A10.954,10.954,0,0,1,166.546,96.25a3.64,3.64,0,0,0,3.64-3.64V56.2A3.64,3.64,0,0,0,166.55,52.563Zm-3.64,36.771a18.24,18.24,0,0,0-14.2,14.2H31.481a18.24,18.24,0,0,0-14.2-14.2V59.481a18.24,18.24,0,0,0,14.2-14.2H148.711a18.24,18.24,0,0,0,14.2,14.2Z" transform="translate(19.126 93.064)" fill="#e8492d"/>
    <path id="Path_27893" data-name="Path 27893" d="M48.838,42A21.838,21.838,0,1,0,70.676,63.838,21.838,21.838,0,0,0,48.838,42Zm0,36.406A14.563,14.563,0,1,1,63.406,63.84,14.563,14.563,0,0,1,48.838,78.406Z" transform="translate(64.018 103.627)" fill="#e8492d"/>
    <path id="Path_27894" data-name="Path 27894" d="M40.766,75.532A32.766,32.766,0,1,0,8,42.766,32.766,32.766,0,0,0,40.766,75.532Zm0-58.252A25.486,25.486,0,1,1,15.281,42.766,25.486,25.486,0,0,1,40.766,17.281Z" transform="translate(13.843 19.126)" fill="#e8492d"/>
    <path id="Path_27895" data-name="Path 27895" d="M24.919,45.766a3.64,3.64,0,0,1-3.64-3.64H14a10.919,10.919,0,0,0,7.281,10.253v4.31h7.281v-4.31A10.9,10.9,0,0,0,24.919,31.2a3.64,3.64,0,1,1,3.64-3.64h7.279A10.919,10.919,0,0,0,28.557,17.31V13H21.281v4.31a10.9,10.9,0,0,0,3.638,21.175,3.64,3.64,0,1,1,0,7.281Z" transform="translate(29.689 27.048)" fill="#e8492d"/>
  </g>
</svg>
