<svg xmlns="http://www.w3.org/2000/svg" width="81" height="81" viewBox="0 0 81 81">
  <g id="Group_20689" data-name="Group 20689" transform="translate(-788 -4626)">
    <rect id="Rectangle_35" data-name="Rectangle 35" width="81" height="81" transform="translate(788 4626)" fill="#e8492d"/>
    <g id="Analysis" transform="translate(799 4637)">
      <path id="Path_27890" data-name="Path 27890" d="M56.186,33.526H54.924a18.606,18.606,0,0,0,2.246-8.867c0-.345-.01-.7-.03-1.044a.985.985,0,0,0-.985-.926H39.437V6.926a.985.985,0,0,0-.985-.985,18.473,18.473,0,0,0-6.9,1.33V2.985A.985.985,0,0,0,30.571,2H9.882a1.018,1.018,0,0,0-.7.285l-6.895,6.9a1.018,1.018,0,0,0-.285.7V34.511a.985.985,0,0,0,.985.985H5.94v24.63a.985.985,0,0,0,.985.985H56.186a.985.985,0,0,0,.985-.985V34.511a.985.985,0,0,0-.985-.986ZM31.556,9.418A16.635,16.635,0,0,1,37.465,7.94V23.674a.985.985,0,0,0,.985.985H55.2a16.567,16.567,0,0,1-2.562,8.867H31.553ZM8.9,5.362V8.9H5.359ZM3.97,33.526V10.867H9.88a.985.985,0,0,0,.985-.985V3.97H29.585V33.526ZM55.2,59.141H7.909V35.5H55.2Z" transform="translate(-2 -2)" fill="#fff"/>
      <path id="Path_27891" data-name="Path 27891" d="M42.985,2A.985.985,0,0,0,42,2.985V19.733a.985.985,0,0,0,.985.985H60.718v-.01a.979.979,0,0,0,.69-.3,1.043,1.043,0,0,0,.266-.729A18.7,18.7,0,0,0,42.985,2Zm.985,16.748V4A16.727,16.727,0,0,1,59.615,18.748Z" transform="translate(-2.593 -2)" fill="#fff"/>
      <path id="Path_27892" data-name="Path 27892" d="M52.363,41.941a2.964,2.964,0,0,1-2.955-2.955A.985.985,0,0,0,48.422,38h-33.5a.985.985,0,0,0-.985.985,2.964,2.964,0,0,1-2.955,2.955.985.985,0,0,0-.986.986v9.852a.985.985,0,0,0,.985.985,2.964,2.964,0,0,1,2.955,2.955.985.985,0,0,0,.985.985h33.5a.985.985,0,0,0,.985-.985,2.964,2.964,0,0,1,2.955-2.955.985.985,0,0,0,.985-.985V42.926A.985.985,0,0,0,52.363,41.941Zm-.985,9.95a4.936,4.936,0,0,0-3.842,3.842H15.813a4.936,4.936,0,0,0-3.842-3.842V43.813a4.936,4.936,0,0,0,3.842-3.842H47.536a4.936,4.936,0,0,0,3.842,3.842Z" transform="translate(-2.118 -2.533)" fill="#fff"/>
      <path id="Path_27893" data-name="Path 27893" d="M32.909,42a5.909,5.909,0,1,0,5.909,5.909A5.909,5.909,0,0,0,32.909,42Zm0,9.852a3.941,3.941,0,1,1,3.942-3.942A3.941,3.941,0,0,1,32.909,51.852Z" transform="translate(-2.37 -2.593)" fill="#fff"/>
      <path id="Path_27894" data-name="Path 27894" d="M16.867,27.733A8.867,8.867,0,1,0,8,18.867,8.867,8.867,0,0,0,16.867,27.733Zm0-15.763a6.9,6.9,0,1,1-6.9,6.9A6.9,6.9,0,0,1,16.867,11.97Z" transform="translate(-2.089 -2.118)" fill="#fff"/>
      <path id="Path_27895" data-name="Path 27895" d="M16.955,21.867a.985.985,0,0,1-.985-.985H14a2.955,2.955,0,0,0,1.97,2.774v1.166h1.97V23.656a2.949,2.949,0,0,0-.986-5.73.985.985,0,1,1,.985-.985h1.97a2.955,2.955,0,0,0-1.97-2.774V13H15.97v1.166a2.949,2.949,0,0,0,.985,5.73.985.985,0,1,1,0,1.97Z" transform="translate(-2.178 -2.163)" fill="#fff"/>
    </g>
  </g>
</svg>
