<svg xmlns="http://www.w3.org/2000/svg" width="117" height="117" viewBox="0 0 117 117">
  <g id="Group_20686" data-name="Group 20686" transform="translate(-364 -2598)">
    <rect id="Rectangle_22" data-name="Rectangle 22" width="117" height="117" rx="19" transform="translate(364 2598)" fill="#dff"/>
    <g id="accounting_1_" data-name="accounting (1)" transform="translate(392 2623)">
      <path id="Path_1907" data-name="Path 1907" d="M59.064,13.956h-5.4V6.4a5.4,5.4,0,0,0-5.4-5.4H11.558a5.4,5.4,0,0,0-5.4,5.4v5.4H14.8v2.159H9.4a5.4,5.4,0,0,0-5.4,5.4V51.746a5.4,5.4,0,0,0,5.4,5.4H24.927l-2.159,4.319H19.116a3.239,3.239,0,0,0,0,6.478H49.347a3.239,3.239,0,1,0,0-6.478H45.7l-2.159-4.319H59.064a5.4,5.4,0,0,0,5.4-5.4V19.355A5.4,5.4,0,0,0,59.064,13.956ZM51.507,43.437v2.91H48.6A11.976,11.976,0,0,0,51.507,43.437Zm-9.717,2.91a9.717,9.717,0,1,1,9.717-9.717A9.729,9.729,0,0,1,41.789,46.347ZM53.666,20.434h4.319V46.347H53.666ZM51.507,6.4V29.822A11.867,11.867,0,1,0,34.982,46.347H16.956V6.4a5.343,5.343,0,0,0-1.108-3.239H48.267A3.243,3.243,0,0,1,51.507,6.4ZM14.8,46.347H10.478V20.434H14.8ZM8.319,9.638V6.4a3.239,3.239,0,1,1,6.478,0V9.638ZM50.427,64.7a1.081,1.081,0,0,1-1.08,1.08H19.116a1.08,1.08,0,0,1,0-2.159H49.347A1.081,1.081,0,0,1,50.427,64.7Zm-7.145-3.239h-18.1l2.159-4.319H41.122Zm4.986-6.478a1.08,1.08,0,0,1,0-2.159h6.478a1.08,1.08,0,1,1,0,2.159ZM62.3,51.746a3.243,3.243,0,0,1-3.239,3.239H57.786a3.2,3.2,0,0,0,.2-1.08,3.243,3.243,0,0,0-3.239-3.239H48.267a3.243,3.243,0,0,0-3.239,3.239,3.2,3.2,0,0,0,.2,1.08H9.4a3.243,3.243,0,0,1-3.239-3.239V19.355A3.243,3.243,0,0,1,9.4,16.116h5.4v2.159H10.478a2.162,2.162,0,0,0-2.159,2.159V46.347a2.162,2.162,0,0,0,2.159,2.159H57.985a2.162,2.162,0,0,0,2.159-2.159V20.434a2.162,2.162,0,0,0-2.159-2.159H53.666V16.116h5.4A3.243,3.243,0,0,1,62.3,19.355Z" transform="translate(-4 -1)" fill="#2c5b5b"/>
      <path id="Path_1908" data-name="Path 1908" d="M10,47h2.159v2.159H10Z" transform="translate(-3.522 2.666)" fill="#2c5b5b"/>
      <path id="Path_1909" data-name="Path 1909" d="M14,47h2.159v2.159H14Z" transform="translate(-3.203 2.666)" fill="#2c5b5b"/>
      <path id="Path_1910" data-name="Path 1910" d="M18,47h2.159v2.159H18Z" transform="translate(-2.884 2.666)" fill="#2c5b5b"/>
      <path id="Path_1911" data-name="Path 1911" d="M39.239,31.319a1.081,1.081,0,0,1,1.08,1.08h2.159a3.235,3.235,0,0,0-2.159-3.04V27H38.159v2.159H36V32.4a3.243,3.243,0,0,0,3.239,3.239,1.081,1.081,0,0,1,1.08,1.08V37.8h-1.08a1.081,1.081,0,0,1-1.08-1.08H36a3.235,3.235,0,0,0,2.159,3.04v2.358h2.159V39.956h2.159V36.717a3.243,3.243,0,0,0-3.239-3.239,1.081,1.081,0,0,1-1.08-1.08v-1.08Z" transform="translate(-1.45 1.072)" fill="#2c5b5b"/>
      <circle id="Ellipse_12" data-name="Ellipse 12" cx="1.169" cy="1.169" r="1.169" transform="translate(30.383 33.978)" fill="#2c5b5b"/>
      <circle id="Ellipse_13" data-name="Ellipse 13" cx="1.169" cy="1.169" r="1.169" transform="translate(43.238 33.978)" fill="#2c5b5b"/>
      <path id="Path_1912" data-name="Path 1912" d="M47.753,5H41.275V20.116H39.116V9.319H32.638v10.8H30.478V13.638H24v8.638H47.753ZM28.319,20.116H26.159V15.8h2.159ZM34.8,11.478h2.159v8.638H34.8Zm10.8,8.638H43.434V7.159h2.159Z" transform="translate(-2.406 -0.681)" fill="#2c5b5b"/>
      <path id="Path_1913" data-name="Path 1913" d="M18,39h8.638v2.159H18Z" transform="translate(-2.884 2.028)" fill="#2c5b5b"/>
      <path id="Path_1914" data-name="Path 1914" d="M18,35h8.638v2.159H18Z" transform="translate(-2.884 1.71)" fill="#2c5b5b"/>
      <path id="Path_1915" data-name="Path 1915" d="M18,31h8.638v2.159H18Z" transform="translate(-2.884 1.391)" fill="#2c5b5b"/>
      <path id="Path_1916" data-name="Path 1916" d="M18,27h8.638v2.159H18Z" transform="translate(-2.884 1.072)" fill="#2c5b5b"/>
      <path id="Path_1917" data-name="Path 1917" d="M18,23h8.638v2.159H18Z" transform="translate(-2.884 0.753)" fill="#2c5b5b"/>
      <path id="Path_1918" data-name="Path 1918" d="M18,5h2.159V7.159H18Z" transform="translate(-2.884 -0.681)" fill="#2c5b5b"/>
      <path id="Path_1919" data-name="Path 1919" d="M18,9h2.159v2.159H18Z" transform="translate(-2.884 -0.362)" fill="#2c5b5b"/>
      <path id="Path_1920" data-name="Path 1920" d="M18,13h2.159v2.159H18Z" transform="translate(-2.884 -0.044)" fill="#2c5b5b"/>
    </g>
  </g>
</svg>
