<svg xmlns="http://www.w3.org/2000/svg" xmlns:xlink="http://www.w3.org/1999/xlink" width="149" height="143" viewBox="0 0 149 143">
  <defs>
    <clipPath id="clip-path">
      <rect width="149" height="143" fill="none"/>
    </clipPath>
  </defs>
  <g id="Repeat_Grid_2" data-name="Repeat Grid 2" opacity="0.52" clip-path="url(#clip-path)">
    <g transform="translate(-889 -1647)">
      <circle id="Ellipse_10" data-name="Ellipse 10" cx="2.5" cy="2.5" r="2.5" transform="translate(889 1647)" fill="#c1c1f5"/>
    </g>
    <g transform="translate(-862 -1647)">
      <circle id="Ellipse_10-2" data-name="Ellipse 10" cx="2.5" cy="2.5" r="2.5" transform="translate(889 1647)" fill="#c1c1f5"/>
    </g>
    <g transform="translate(-835 -1647)">
      <circle id="Ellipse_10-3" data-name="Ellipse 10" cx="2.5" cy="2.5" r="2.5" transform="translate(889 1647)" fill="#c1c1f5"/>
    </g>
    <g transform="translate(-808 -1647)">
      <circle id="Ellipse_10-4" data-name="Ellipse 10" cx="2.5" cy="2.5" r="2.5" transform="translate(889 1647)" fill="#c1c1f5"/>
    </g>
    <g transform="translate(-781 -1647)">
      <circle id="Ellipse_10-5" data-name="Ellipse 10" cx="2.5" cy="2.5" r="2.5" transform="translate(889 1647)" fill="#c1c1f5"/>
    </g>
    <g transform="translate(-754 -1647)">
      <circle id="Ellipse_10-6" data-name="Ellipse 10" cx="2.5" cy="2.5" r="2.5" transform="translate(889 1647)" fill="#c1c1f5"/>
    </g>
    <g transform="translate(-889 -1620)">
      <circle id="Ellipse_10-7" data-name="Ellipse 10" cx="2.5" cy="2.5" r="2.5" transform="translate(889 1647)" fill="#c1c1f5"/>
    </g>
    <g transform="translate(-862 -1620)">
      <circle id="Ellipse_10-8" data-name="Ellipse 10" cx="2.5" cy="2.5" r="2.5" transform="translate(889 1647)" fill="#c1c1f5"/>
    </g>
    <g transform="translate(-835 -1620)">
      <circle id="Ellipse_10-9" data-name="Ellipse 10" cx="2.5" cy="2.5" r="2.5" transform="translate(889 1647)" fill="#c1c1f5"/>
    </g>
    <g transform="translate(-808 -1620)">
      <circle id="Ellipse_10-10" data-name="Ellipse 10" cx="2.5" cy="2.5" r="2.5" transform="translate(889 1647)" fill="#c1c1f5"/>
    </g>
    <g transform="translate(-781 -1620)">
      <circle id="Ellipse_10-11" data-name="Ellipse 10" cx="2.5" cy="2.5" r="2.5" transform="translate(889 1647)" fill="#c1c1f5"/>
    </g>
    <g transform="translate(-754 -1620)">
      <circle id="Ellipse_10-12" data-name="Ellipse 10" cx="2.5" cy="2.5" r="2.5" transform="translate(889 1647)" fill="#c1c1f5"/>
    </g>
    <g transform="translate(-889 -1593)">
      <circle id="Ellipse_10-13" data-name="Ellipse 10" cx="2.5" cy="2.5" r="2.5" transform="translate(889 1647)" fill="#c1c1f5"/>
    </g>
    <g transform="translate(-862 -1593)">
      <circle id="Ellipse_10-14" data-name="Ellipse 10" cx="2.5" cy="2.5" r="2.5" transform="translate(889 1647)" fill="#c1c1f5"/>
    </g>
    <g transform="translate(-835 -1593)">
      <circle id="Ellipse_10-15" data-name="Ellipse 10" cx="2.5" cy="2.5" r="2.5" transform="translate(889 1647)" fill="#c1c1f5"/>
    </g>
    <g transform="translate(-808 -1593)">
      <circle id="Ellipse_10-16" data-name="Ellipse 10" cx="2.5" cy="2.5" r="2.5" transform="translate(889 1647)" fill="#c1c1f5"/>
    </g>
    <g transform="translate(-781 -1593)">
      <circle id="Ellipse_10-17" data-name="Ellipse 10" cx="2.5" cy="2.5" r="2.5" transform="translate(889 1647)" fill="#c1c1f5"/>
    </g>
    <g transform="translate(-754 -1593)">
      <circle id="Ellipse_10-18" data-name="Ellipse 10" cx="2.5" cy="2.5" r="2.5" transform="translate(889 1647)" fill="#c1c1f5"/>
    </g>
    <g transform="translate(-889 -1566)">
      <circle id="Ellipse_10-19" data-name="Ellipse 10" cx="2.5" cy="2.5" r="2.5" transform="translate(889 1647)" fill="#c1c1f5"/>
    </g>
    <g transform="translate(-862 -1566)">
      <circle id="Ellipse_10-20" data-name="Ellipse 10" cx="2.5" cy="2.5" r="2.5" transform="translate(889 1647)" fill="#c1c1f5"/>
    </g>
    <g transform="translate(-835 -1566)">
      <circle id="Ellipse_10-21" data-name="Ellipse 10" cx="2.5" cy="2.5" r="2.5" transform="translate(889 1647)" fill="#c1c1f5"/>
    </g>
    <g transform="translate(-808 -1566)">
      <circle id="Ellipse_10-22" data-name="Ellipse 10" cx="2.5" cy="2.5" r="2.5" transform="translate(889 1647)" fill="#c1c1f5"/>
    </g>
    <g transform="translate(-781 -1566)">
      <circle id="Ellipse_10-23" data-name="Ellipse 10" cx="2.5" cy="2.5" r="2.5" transform="translate(889 1647)" fill="#c1c1f5"/>
    </g>
    <g transform="translate(-754 -1566)">
      <circle id="Ellipse_10-24" data-name="Ellipse 10" cx="2.5" cy="2.5" r="2.5" transform="translate(889 1647)" fill="#c1c1f5"/>
    </g>
    <g transform="translate(-889 -1539)">
      <circle id="Ellipse_10-25" data-name="Ellipse 10" cx="2.5" cy="2.5" r="2.5" transform="translate(889 1647)" fill="#c1c1f5"/>
    </g>
    <g transform="translate(-862 -1539)">
      <circle id="Ellipse_10-26" data-name="Ellipse 10" cx="2.5" cy="2.5" r="2.5" transform="translate(889 1647)" fill="#c1c1f5"/>
    </g>
    <g transform="translate(-835 -1539)">
      <circle id="Ellipse_10-27" data-name="Ellipse 10" cx="2.5" cy="2.5" r="2.5" transform="translate(889 1647)" fill="#c1c1f5"/>
    </g>
    <g transform="translate(-808 -1539)">
      <circle id="Ellipse_10-28" data-name="Ellipse 10" cx="2.5" cy="2.5" r="2.5" transform="translate(889 1647)" fill="#c1c1f5"/>
    </g>
    <g transform="translate(-781 -1539)">
      <circle id="Ellipse_10-29" data-name="Ellipse 10" cx="2.5" cy="2.5" r="2.5" transform="translate(889 1647)" fill="#c1c1f5"/>
    </g>
    <g transform="translate(-754 -1539)">
      <circle id="Ellipse_10-30" data-name="Ellipse 10" cx="2.5" cy="2.5" r="2.5" transform="translate(889 1647)" fill="#c1c1f5"/>
    </g>
    <g transform="translate(-889 -1512)">
      <circle id="Ellipse_10-31" data-name="Ellipse 10" cx="2.5" cy="2.5" r="2.5" transform="translate(889 1647)" fill="#c1c1f5"/>
    </g>
    <g transform="translate(-862 -1512)">
      <circle id="Ellipse_10-32" data-name="Ellipse 10" cx="2.5" cy="2.5" r="2.5" transform="translate(889 1647)" fill="#c1c1f5"/>
    </g>
    <g transform="translate(-835 -1512)">
      <circle id="Ellipse_10-33" data-name="Ellipse 10" cx="2.5" cy="2.5" r="2.5" transform="translate(889 1647)" fill="#c1c1f5"/>
    </g>
    <g transform="translate(-808 -1512)">
      <circle id="Ellipse_10-34" data-name="Ellipse 10" cx="2.5" cy="2.5" r="2.5" transform="translate(889 1647)" fill="#c1c1f5"/>
    </g>
    <g transform="translate(-781 -1512)">
      <circle id="Ellipse_10-35" data-name="Ellipse 10" cx="2.5" cy="2.5" r="2.5" transform="translate(889 1647)" fill="#c1c1f5"/>
    </g>
    <g transform="translate(-754 -1512)">
      <circle id="Ellipse_10-36" data-name="Ellipse 10" cx="2.5" cy="2.5" r="2.5" transform="translate(889 1647)" fill="#c1c1f5"/>
    </g>
  </g>
</svg>
