<svg id="Page-1" xmlns="http://www.w3.org/2000/svg" width="56.861" height="56.771" viewBox="0 0 56.861 56.771">
  <g id="_002---Design-Software" data-name="002---Design-Software" transform="translate(0 0)">
    <path id="Shape" d="M54.018,6.634H46.876a1.98,1.98,0,0,0-.357-.442L41.165.827a2.916,2.916,0,0,0-4.023,0L35.8,2.169,31.794,6.182l-.012.009-.009.012-.431.431h-5.6L23.179,4.069,20.5,1.388a4.745,4.745,0,0,0-6.7,0L11.117,4.069A4.7,4.7,0,0,0,9.807,6.634H2.843A2.843,2.843,0,0,0,0,9.477V44.541a2.843,2.843,0,0,0,2.843,2.843H19.888a6.111,6.111,0,0,1-2.166,3.878h-.663a2.756,2.756,0,1,0,0,5.512H39.8a2.756,2.756,0,1,0,0-5.512h-.663a6.111,6.111,0,0,1-2.166-3.878H54.018a2.843,2.843,0,0,0,2.843-2.843V9.477A2.843,2.843,0,0,0,54.018,6.634ZM39.823,2.167l5.4,5.408c.006.006.013.018.02.026a.931.931,0,0,0,.2.543.9.9,0,0,1-.27.72l-8.6,8.6-6.7-6.7L32.452,8.2,33.791,9.54a.948.948,0,0,0,1.34-1.34L33.793,6.862,36.472,4.18l1.34,1.34a.948.948,0,1,0,1.34-1.34l-1.34-1.337.671-.672a.974.974,0,0,1,1.34,0ZM45.234,35.5l-2.728-.8a3.664,3.664,0,0,1,1.927-1.927Zm-3.29-3.291a5.659,5.659,0,0,0-1.266,1.951L35.766,32.72a1.9,1.9,0,0,1,.151-2.517,1.94,1.94,0,0,1,2.68,0,.948.948,0,1,0,1.34-1.34,1.9,1.9,0,0,1,0-2.681,1.939,1.939,0,0,1,2.517-.145L43.9,30.948A5.666,5.666,0,0,0,41.943,32.213ZM19.159,16.131l2.68-2.681L36.288,27.9A3.668,3.668,0,0,0,33.6,30.573ZM11.682,28.968l.663-.663,1.341,1.342a.948.948,0,0,0,1.34-1.34l-1.341-1.342,2.68-2.68,1.342,1.341a.949.949,0,1,0,1.341-1.342l-1.342-1.341L20.5,20.151l6.7,6.7-8.813,8.835a.974.974,0,0,1-1.341,0l-5.359-5.368a.93.93,0,0,1-.28-.663.954.954,0,0,1,.277-.684ZM38.6,24.842a3.753,3.753,0,0,0-.973,1.712L23.179,12.11,25.86,9.43l2.01,2.01,0,.007.007,0,8.025,8.024v.008h.007l4.409,4.41a3.66,3.66,0,0,0-1.73.95ZM28.545,9.433l-.9-.9h1.807ZM24.52,8.09l-6.7,6.7L15.805,12.78l6.7-6.7ZM12.458,5.409l2.68-2.681a2.843,2.843,0,0,1,4.021,0l2.01,2.011-6.7,6.7-2.01-2.01a2.843,2.843,0,0,1,0-4.021ZM40.837,54.018A1.035,1.035,0,0,1,39.8,55.053H17.058a1.035,1.035,0,1,1,0-2.07H39.8A1.035,1.035,0,0,1,40.837,54.018Zm-4.09-2.756H20.114a8.654,8.654,0,0,0,1.512-3.878H35.235A8.654,8.654,0,0,0,36.747,51.262Zm17.271-5.773H2.843a.948.948,0,0,1-.948-.948v-1.9H5.686a.948.948,0,1,0,0-1.9H1.9V9.477a.948.948,0,0,1,.948-.948H9.879a4.691,4.691,0,0,0,1.239,2.24L13.8,13.45,17.153,16.8l2.01,2.01L10.35,27.624a2.843,2.843,0,0,0,0,4.031L15.7,37.019a2.843,2.843,0,0,0,4.023,0l8.813-8.834,6.035,6.036a1.215,1.215,0,0,0,.4.239L44.7,37.32a1.9,1.9,0,0,0,2.349-2.35l-2.86-9.725a1.215,1.215,0,0,0-.239-.4l-6.032-6.031,8.587-8.6a2.8,2.8,0,0,0,.831-1.685h6.678a.948.948,0,0,1,.948.948V40.75H9.477a.948.948,0,1,0,0,1.9H54.965v1.9a.948.948,0,0,1-.948.948Z" transform="translate(0 -0.002)" fill="#fff"/>
  </g>
</svg>
