<svg xmlns="http://www.w3.org/2000/svg" width="81" height="81" viewBox="0 0 81 81">
  <g id="Group_20690" data-name="Group 20690" transform="translate(-1246 -4626)">
    <rect id="Rectangle_35" data-name="Rectangle 35" width="81" height="81" transform="translate(1246 4626)" fill="#f8d937"/>
    <g id="process" transform="translate(1256 4636)">
      <path id="Path_27877" data-name="Path 27877" d="M59.771,24.271,53.614,23.5a24.089,24.089,0,0,0-2-4.807l3.812-4.9a1.012,1.012,0,0,0-.083-1.336L48.2,5.308a1.012,1.012,0,0,0-1.337-.083l-4.9,3.812a24.15,24.15,0,0,0-4.806-2L36.384.886a1.011,1.011,0,0,0-1-.886H25.273a1.011,1.011,0,0,0-1,.886L23.5,7.042a24.151,24.151,0,0,0-4.806,2l-4.9-3.812a1.012,1.012,0,0,0-1.336.083L5.308,12.457a1.012,1.012,0,0,0-.083,1.336l3.812,4.9a24.089,24.089,0,0,0-2,4.806l-6.157.771a1.011,1.011,0,0,0-.886,1v10.11a1.011,1.011,0,0,0,.886,1l6.157.771a24.081,24.081,0,0,0,2,4.806l-3.812,4.9A1.012,1.012,0,0,0,5.308,48.2l7.148,7.148a1.012,1.012,0,0,0,1.336.083l4.9-3.812c.314.171.63.337.951.493l.891-1.814q-.723-.36-1.421-.762a1.011,1.011,0,0,0-1.131.074l-4.729,3.676L7.369,47.4l3.68-4.729a1.011,1.011,0,0,0,.071-1.131,22.084,22.084,0,0,1-2.309-5.56,1.011,1.011,0,0,0-.853-.746l-5.937-.743V26.165l5.939-.743a1.012,1.012,0,0,0,.853-.746,22.082,22.082,0,0,1,2.306-5.559,1.011,1.011,0,0,0-.075-1.131L7.366,13.257,13.255,7.37l4.729,3.679a1.011,1.011,0,0,0,1.131.071,22.151,22.151,0,0,1,5.56-2.308,1.011,1.011,0,0,0,.747-.853l.742-5.938h8.327l.743,5.939a1.011,1.011,0,0,0,.747.853,22.112,22.112,0,0,1,5.558,2.306,1.011,1.011,0,0,0,1.131-.074L47.4,7.37l5.886,5.885-3.68,4.729a1.011,1.011,0,0,0-.071,1.131,22.084,22.084,0,0,1,2.309,5.56,1.011,1.011,0,0,0,.853.746l5.938.743v6.184h2.022V25.274a1.011,1.011,0,0,0-.886-1Zm0,0" transform="translate(0 0)" fill="#fff"/>
      <path id="Path_27878" data-name="Path 27878" d="M232,48h2.022v2.022H232Zm0,0" transform="translate(-202.683 -41.934)" fill="#fff"/>
      <path id="Path_27879" data-name="Path 27879" d="M98.582,100.009l1.43-1.43,1.43,1.43-1.43,1.43Zm0,0" transform="translate(-86.125 -86.121)" fill="#fff"/>
      <path id="Path_27880" data-name="Path 27880" d="M48,232h2.022v2.022H48Zm0,0" transform="translate(-41.934 -202.682)" fill="#fff"/>
      <path id="Path_27881" data-name="Path 27881" d="M98.582,360.227l1.43-1.43,1.43,1.43-1.429,1.43Zm0,0" transform="translate(-86.125 -313.456)" fill="#fff"/>
      <path id="Path_27882" data-name="Path 27882" d="M358.8,100.012l1.43-1.43,1.43,1.43-1.43,1.43Zm0,0" transform="translate(-313.46 -86.124)" fill="#fff"/>
      <path id="Path_27883" data-name="Path 27883" d="M103.871,129.183l1.149-1.664a16.175,16.175,0,1,1,25.35-13.324,16.482,16.482,0,0,1-.11,1.9l2.007.235a18.2,18.2,0,1,0-28.4,12.846Zm0,0" transform="translate(-83.868 -83.868)" fill="#fff"/>
      <path id="Path_27884" data-name="Path 27884" d="M183.077,167.263a3.03,3.03,0,0,0-1.834,1.836H176v2.022h5.243a3.026,3.026,0,1,0,3.855-3.855V160h-2.022Zm1.011,3.855a1.007,1.007,0,1,1,.716-.294,1.011,1.011,0,0,1-.716.294Zm0,0" transform="translate(-153.76 -139.781)" fill="#fff"/>
      <path id="Path_27885" data-name="Path 27885" d="M128,232h2.022v2.022H128Zm0,0" transform="translate(-111.825 -202.682)" fill="#fff"/>
      <path id="Path_27886" data-name="Path 27886" d="M336,232h2.022v2.022H336Zm0,0" transform="translate(-293.54 -202.682)" fill="#fff"/>
      <path id="Path_27887" data-name="Path 27887" d="M232,128h2.022v2.022H232Zm0,0" transform="translate(-202.683 -111.825)" fill="#fff"/>
      <path id="Path_27888" data-name="Path 27888" d="M212.394,272H196.219a2.022,2.022,0,0,0-2.022,2.022v2.048A10.1,10.1,0,1,0,180.07,290.2h-2.048A2.022,2.022,0,0,0,176,292.219v4.044a2.022,2.022,0,0,0,2.022,2.022H194.2a2.005,2.005,0,0,0,1.011-.281,2.005,2.005,0,0,0,1.011.281h16.175a2.022,2.022,0,0,0,2.022-2.022v-4.044a1.962,1.962,0,0,1,0-2.022v-4.044a1.962,1.962,0,0,1,0-2.022v-4.044a1.962,1.962,0,0,1,0-2.022V274.02a2.022,2.022,0,0,0-2.022-2.02Zm-16.175,2.022h1.011v2.022h2.022v-2.022h2.022v2.022H203.3v-2.022h2.022v2.022h2.022v-2.022h2.022v2.022h2.022v-2.022h1.011v4.044H196.219Zm16.175,10.11H196.219v-4.044h1.011v2.022h2.022v-2.022h2.022v2.022H203.3v-2.022h2.022v2.022h2.022v-2.022h2.022v2.022h2.022v-2.022h1.011Zm0,6.066H196.219v-4.044h1.011v2.022h2.022v-2.022h2.022v2.022H203.3v-2.022h2.022v2.022h2.022v-2.022h2.022v2.022h2.022v-2.022h1.011Zm-20.245,0a10.194,10.194,0,0,0,2.048-2.048V290.2Zm-14.127-8.087a8.087,8.087,0,1,1,8.087,8.087,8.087,8.087,0,0,1-8.087-8.087Zm0,14.153v-4.044h1.011v2.022h2.022v-2.022h2.022v2.022H185.1v-2.022h2.022v2.022h2.022v-2.022h2.022v2.022h2.022v-2.022H194.2v4.044Zm34.372,0H196.219v-4.044h1.011v2.022h2.022v-2.022h2.022v2.022H203.3v-2.022h2.022v2.022h2.022v-2.022h2.022v2.022h2.022v-2.022h1.011Zm0,0" transform="translate(-153.759 -237.628)" fill="#fff"/>
      <path id="Path_27889" data-name="Path 27889" d="M235.033,307.033a1.011,1.011,0,0,1,1.011,1.011h2.022a3.033,3.033,0,0,0-2.022-2.847V304h-2.022v1.2a3.026,3.026,0,0,0,1.011,5.88,1.011,1.011,0,1,1-1.011,1.011H232a3.033,3.033,0,0,0,2.022,2.847v1.2h2.022v-1.2a3.026,3.026,0,0,0-1.011-5.88,1.011,1.011,0,1,1,0-2.022Zm0,0" transform="translate(-202.683 -265.584)" fill="#fff"/>
    </g>
  </g>
</svg>
