<svg xmlns="http://www.w3.org/2000/svg" width="218.348" height="218.348" viewBox="0 0 218.348 218.348">
  <g id="process" opacity="0.18">
    <path id="Path_27877" data-name="Path 27877" d="M215.16,87.369,193,84.6a86.713,86.713,0,0,0-7.183-17.3L199.537,49.65a3.642,3.642,0,0,0-.3-4.811l-25.732-25.73a3.642,3.642,0,0,0-4.811-.3L151.049,32.534a86.935,86.935,0,0,0-17.3-7.183L130.972,3.188A3.638,3.638,0,0,0,127.369,0H90.977a3.638,3.638,0,0,0-3.61,3.188L84.6,25.351a86.937,86.937,0,0,0-17.3,7.183L49.652,18.811a3.642,3.642,0,0,0-4.811.3L19.109,44.841a3.642,3.642,0,0,0-.3,4.811L32.534,67.3a86.714,86.714,0,0,0-7.183,17.3L3.188,87.376A3.638,3.638,0,0,0,0,90.979v36.392a3.638,3.638,0,0,0,3.188,3.61l22.162,2.776a86.686,86.686,0,0,0,7.183,17.3L18.811,168.707a3.642,3.642,0,0,0,.3,4.811L44.841,199.25a3.642,3.642,0,0,0,4.811.3L67.3,185.825c1.129.614,2.267,1.212,3.423,1.775l3.209-6.528q-2.6-1.3-5.116-2.744a3.64,3.64,0,0,0-4.071.266L47.72,191.828,26.526,170.633,39.773,153.61a3.64,3.64,0,0,0,.257-4.071,79.5,79.5,0,0,1-8.312-20.016,3.64,3.64,0,0,0-3.07-2.685l-21.37-2.676V94.186l21.38-2.674a3.643,3.643,0,0,0,3.072-2.685,79.491,79.491,0,0,1,8.3-20.01,3.638,3.638,0,0,0-.27-4.071L26.514,47.722l21.2-21.191L64.738,39.774a3.64,3.64,0,0,0,4.071.257,79.739,79.739,0,0,1,20.016-8.308,3.638,3.638,0,0,0,2.689-3.07L94.186,7.279h29.977l2.674,21.38a3.64,3.64,0,0,0,2.689,3.072,79.6,79.6,0,0,1,20.007,8.3,3.64,3.64,0,0,0,4.071-.266l17.024-13.234,21.189,21.185L178.568,64.74a3.64,3.64,0,0,0-.257,4.071,79.5,79.5,0,0,1,8.312,20.016,3.638,3.638,0,0,0,3.07,2.685l21.376,2.674v22.26h7.279V90.979a3.638,3.638,0,0,0-3.188-3.61Zm0,0" transform="translate(0 0)" fill="#f8d937"/>
    <path id="Path_27878" data-name="Path 27878" d="M232,48h7.278v7.278H232Zm0,0" transform="translate(-126.466 -26.165)" fill="#f8d937"/>
    <path id="Path_27879" data-name="Path 27879" d="M98.582,103.727l5.146-5.148,5.146,5.148-5.146,5.146Zm0,0" transform="translate(-53.739 -53.734)" fill="#f8d937"/>
    <path id="Path_27880" data-name="Path 27880" d="M48,232h7.278v7.278H48Zm0,0" transform="translate(-26.165 -126.464)" fill="#f8d937"/>
    <path id="Path_27881" data-name="Path 27881" d="M98.582,363.945l5.146-5.148,5.146,5.146-5.144,5.148Zm0,0" transform="translate(-53.739 -195.582)" fill="#f8d937"/>
    <path id="Path_27882" data-name="Path 27882" d="M358.8,103.73l5.146-5.148,5.148,5.146-5.146,5.148Zm0,0" transform="translate(-195.587 -53.737)" fill="#f8d937"/>
    <path id="Path_27883" data-name="Path 27883" d="M124.338,215.46l4.138-5.99a58.227,58.227,0,1,1,91.255-47.963,59.331,59.331,0,0,1-.4,6.851l7.226.845a65.5,65.5,0,1,0-102.222,46.242Zm0,0" transform="translate(-52.332 -52.34)" fill="#f8d937"/>
    <path id="Path_27884" data-name="Path 27884" d="M201.475,186.144a10.906,10.906,0,0,0-6.6,6.608H176v7.278h18.874a10.891,10.891,0,1,0,13.878-13.878V160h-7.278Zm3.64,13.878a1.682,1.682,0,1,1,0,.009Zm0,0" transform="translate(-95.94 -87.218)" fill="#f8d937"/>
    <path id="Path_27885" data-name="Path 27885" d="M128,232h7.278v7.278H128Zm0,0" transform="translate(-69.775 -126.464)" fill="#f8d937"/>
    <path id="Path_27886" data-name="Path 27886" d="M336,232h7.278v7.278H336Zm0,0" transform="translate(-183.157 -126.464)" fill="#f8d937"/>
    <path id="Path_27887" data-name="Path 27887" d="M232,128h7.278v7.278H232Zm0,0" transform="translate(-126.466 -69.773)" fill="#f8d937"/>
    <path id="Path_27888" data-name="Path 27888" d="M307.009,272H248.782a7.279,7.279,0,0,0-7.278,7.278v7.372A36.344,36.344,0,1,0,190.65,337.5h-7.372A7.278,7.278,0,0,0,176,344.782v14.557a7.278,7.278,0,0,0,7.278,7.278H241.5a7.217,7.217,0,0,0,3.64-1.01,7.217,7.217,0,0,0,3.64,1.01h58.225a7.278,7.278,0,0,0,7.278-7.278V344.782a7.217,7.217,0,0,0-1.01-3.64,7.218,7.218,0,0,0,1.01-3.64V322.945a7.217,7.217,0,0,0-1.01-3.64,7.217,7.217,0,0,0,1.01-3.64V301.109a7.218,7.218,0,0,0-1.01-3.64,7.218,7.218,0,0,0,1.01-3.64V279.272A7.278,7.278,0,0,0,307.009,272Zm-58.227,7.278h3.64v7.278H259.7v-7.278h7.278v7.278h7.279v-7.278h7.278v7.278h7.278v-7.278h7.279v7.278h7.278v-7.278h3.64v14.557H248.782Zm58.227,36.392H248.782V301.112h3.64v7.278H259.7v-7.278h7.278v7.278h7.279v-7.278h7.278v7.278h7.278v-7.278h7.279v7.278h7.278v-7.278h3.64Zm0,21.835H248.782V322.947h3.64v7.278H259.7v-7.278h7.278v7.278h7.279v-7.278h7.278v7.278h7.278v-7.278h7.279v7.278h7.278v-7.278h3.64Zm-72.876,0a36.69,36.69,0,0,0,7.372-7.372V337.5ZM183.28,308.392A29.112,29.112,0,1,1,212.391,337.5a29.112,29.112,0,0,1-29.112-29.112Zm0,50.947V344.782h3.638v7.278H194.2v-7.278h7.278v7.278h7.279v-7.278h7.278v7.278h7.278v-7.278h7.279v7.278h7.278v-7.278h3.64v14.557Zm123.731,0H248.782V344.782h3.64v7.278H259.7v-7.278h7.278v7.278h7.279v-7.278h7.278v7.278h7.278v-7.278h7.279v7.278h7.278v-7.278h3.64Zm0,0" transform="translate(-95.938 -148.269)" fill="#f8d937"/>
    <path id="Path_27889" data-name="Path 27889" d="M242.917,314.917a3.64,3.64,0,0,1,3.64,3.64h7.278a10.917,10.917,0,0,0-7.278-10.247V304H239.28v4.31a10.891,10.891,0,0,0,3.64,21.165,3.64,3.64,0,1,1-3.64,3.64H232a10.918,10.918,0,0,0,7.278,10.247v4.308h7.278v-4.31a10.891,10.891,0,0,0-3.64-21.165,3.64,3.64,0,1,1,0-7.278Zm0,0" transform="translate(-126.466 -165.714)" fill="#f8d937"/>
  </g>
</svg>
