<svg xmlns="http://www.w3.org/2000/svg" width="62" height="62" viewBox="0 0 62 62">
  <g id="skills" transform="translate(-1 -1)">
    <path id="Path_39358" data-name="Path 39358" d="M34.144,36.542l1.963-3.306-5.343-5.343-3.306,1.963a15.876,15.876,0,0,0-2.73-1.128L23.777,25H16.222l-.95,3.729a15.876,15.876,0,0,0-2.73,1.128L9.236,27.894,3.893,33.237l1.963,3.306a15.877,15.877,0,0,0-1.128,2.73L1,40.223v7.555l3.729.95a15.877,15.877,0,0,0,1.128,2.73L3.894,54.764l5.343,5.343,3.306-1.963a15.876,15.876,0,0,0,2.73,1.128L16.223,63h7.555l.95-3.729a15.876,15.876,0,0,0,2.73-1.128l3.306,1.963,5.343-5.343-1.963-3.306a15.877,15.877,0,0,0,1.128-2.73L39,47.777V40.222l-3.729-.95A15.873,15.873,0,0,0,34.144,36.542ZM37,46.223l-3.344.853-.152.564a13.854,13.854,0,0,1-1.379,3.337l-.292.507,1.76,2.966-3.144,3.144-2.966-1.76-.507.292a13.9,13.9,0,0,1-3.337,1.379l-.564.152L22.223,61H17.778l-.853-3.344-.564-.152a13.854,13.854,0,0,1-3.337-1.379l-.507-.292-2.966,1.76L6.407,54.449l1.76-2.966-.292-.507A13.894,13.894,0,0,1,6.5,47.639l-.152-.564L3,46.223V41.778l3.344-.853.152-.564a13.854,13.854,0,0,1,1.379-3.337l.292-.507-1.76-2.966,3.144-3.144,2.966,1.76.507-.292A13.894,13.894,0,0,1,16.361,30.5l.564-.152L17.777,27h4.445l.853,3.344.564.152a13.854,13.854,0,0,1,3.337,1.379l.507.292,2.966-1.76,3.144,3.144-1.76,2.966.292.507A13.9,13.9,0,0,1,33.5,40.361l.152.564L37,41.777Z" fill="#ef1b23"/>
    <path id="Path_39359" data-name="Path 39359" d="M20,32A12,12,0,1,0,32,44,12.013,12.013,0,0,0,20,32Zm0,22A10,10,0,1,1,30,44,10.011,10.011,0,0,1,20,54Z" fill="#ef1b23"/>
    <path id="Path_39360" data-name="Path 39360" d="M20,38a6,6,0,1,0,6,6A6.006,6.006,0,0,0,20,38Zm0,10a4,4,0,1,1,4-4A4,4,0,0,1,20,48Z" fill="#ef1b23"/>
    <path id="Path_39361" data-name="Path 39361" d="M60,9H36a3,3,0,0,0-3,3V26a3,3,0,0,0,3,3h2v4.618L47.236,29H60a3,3,0,0,0,3-3V12A3,3,0,0,0,60,9Zm1,17a1,1,0,0,1-1,1H46.764L40,30.382V27H36a1,1,0,0,1-1-1V12a1,1,0,0,1,1-1H60a1,1,0,0,1,1,1Z" fill="#ef1b23"/>
    <path id="Path_39362" data-name="Path 39362" d="M4,19h9.723L20,22.767V19h8a3,3,0,0,0,3-3V4a3,3,0,0,0-3-3H4A3,3,0,0,0,1,4V16A3,3,0,0,0,4,19ZM3,4A1,1,0,0,1,4,3H28a1,1,0,0,1,1,1V16a1,1,0,0,1-1,1H18v2.233L14.277,17H4a1,1,0,0,1-1-1Z" fill="#ef1b23"/>
    <path id="Path_39363" data-name="Path 39363" d="M57,23H55V15H53v8H51V13H49V23H47V17H45v6H43V19H41v4H39v2H59V13H57Z" fill="#ef1b23"/>
    <path id="Path_39364" data-name="Path 39364" d="M8,13a3,3,0,1,0-3-3A3,3,0,0,0,8,13ZM8,9a1,1,0,1,1-1,1A1,1,0,0,1,8,9Z" fill="#ef1b23"/>
    <path id="Path_39365" data-name="Path 39365" d="M16,13a3,3,0,1,0-3-3A3,3,0,0,0,16,13Zm0-4a1,1,0,1,1-1,1A1,1,0,0,1,16,9Z" fill="#ef1b23"/>
    <path id="Path_39366" data-name="Path 39366" d="M24,13a3,3,0,1,0-3-3A3,3,0,0,0,24,13Zm0-4a1,1,0,1,1-1,1A1,1,0,0,1,24,9Z" fill="#ef1b23"/>
    <path id="Path_39367" data-name="Path 39367" d="M52,41a10.952,10.952,0,0,0-5.563,1.52l-6.03-.716,2.028,4.78A10.994,10.994,0,1,0,52,41ZM46.355,59H57.644a8.965,8.965,0,0,1-11.289,0Zm4.315-6.521A1.974,1.974,0,0,1,50,51V49.17A2.119,2.119,0,0,1,51.891,47,2,2,0,0,1,54,49v2a1.974,1.974,0,0,1-.67,1.479l-.33.3v1.841L55.764,56a2.227,2.227,0,0,1,1,1H47.234a2.232,2.232,0,0,1,1-1L51,54.618V52.777Zm8.307,5.2a4.2,4.2,0,0,0-2.319-3.464l-1.513-.756A3.987,3.987,0,0,0,56,51V49a4,4,0,0,0-4.214-4A4.089,4.089,0,0,0,48,49.17V51a3.992,3.992,0,0,0,.854,2.455l-1.513.756a4.2,4.2,0,0,0-2.319,3.464A8.963,8.963,0,0,1,44.4,47.2l.28-.443L43.593,44.2l3.3.393.3-.19a8.991,8.991,0,0,1,11.78,13.276Z" fill="#ef1b23"/>
  </g>
</svg>
