<svg xmlns="http://www.w3.org/2000/svg" width="1929" height="1050.32" viewBox="0 0 1929 1050.32">
  <g id="Group_1" data-name="Group 1" transform="translate(380 3490)">
    <path id="Path_1" data-name="Path 1" d="M-332-2157H1597v522.209s-1.99,31.658-18.856,54.789S1531-1546.155,1531-1546.155l-1112.265,414.7s-83,29.329-132.438,24.167S162.306-1157,162.306-1157L-295.38-1413.187l-1.456-.815s-13.312-7.7-22.1-20S-332-1463.2-332-1463.2Z" transform="translate(-48 -1333)" fill="#111f37"/>
    <path id="Path_2" data-name="Path 2" d="M-332-2157H1187.969v431.6s-1.568,26.166-14.858,45.283-37.147,27.974-37.147,27.974L259.548-1309.391s-65.4,24.24-104.356,19.974-97.7-41.087-97.7-41.087L-303.145-1542.24l-1.148-.674s-10.489-6.364-17.416-16.53S-332-1583.579-332-1583.579Z" transform="translate(361.031 -1333)" fill="#13233d"/>
  </g>
</svg>
