<svg xmlns="http://www.w3.org/2000/svg" width="50.585" height="53" viewBox="0 0 50.585 53">
  <g id="subscription" transform="translate(0)">
    <path id="Path_1853" data-name="Path 1853" d="M61.475,2.58H50.916V.776A.776.776,0,0,0,50.139,0H23.41a.776.776,0,0,0-.776.776v1.8H12.444a.784.784,0,0,0-.777.776V23.728a.776.776,0,0,0,.776.776h10.19v5.668a.776.776,0,0,0,.776.776h2.369a2.779,2.779,0,0,0-.294.963l-1.021,8.838a6.174,6.174,0,0,0-.04.747,6.437,6.437,0,0,0,2.48,4.9l2.585,2.225v3.6a.776.776,0,0,0,.776.776h2.389a.776.776,0,1,0,0-1.553H31.041V48.264a.777.777,0,0,0-.27-.588l-2.55-2.2a5.3,5.3,0,0,1-2.245-3.994,4.608,4.608,0,0,1,.03-.557l1.021-8.838A1.233,1.233,0,0,1,28.254,31a1.285,1.285,0,0,1,.925.419,1.257,1.257,0,0,1,.309.814v6.545a.776.776,0,1,0,1.553,0V17.741a1.234,1.234,0,0,1,2.468-.006s0,0,0,.006,0,.008,0,.012v9.815a.786.786,0,1,0,1.559.01c0-.169,0-.665,0-.794.139-1.579,2.786-1.542,2.786.081V28.04a.777.777,0,0,0,1.553,0A1.237,1.237,0,0,1,40.645,26.8c.772,0,1.553.334,1.553,1.236v.765a.777.777,0,0,0,1.553.014,1.113,1.113,0,0,1,.04-.317,1.263,1.263,0,0,1,2.427-.006l.958,3.69a15.625,15.625,0,0,1-.081,8.139l-2.171,7.73a.774.774,0,0,0-.029.21v3.183H36.37a.776.776,0,0,0,0,1.553h9.3a.776.776,0,0,0,.776-.776V48.371l2.142-7.627a17.179,17.179,0,0,0,.089-8.949l-.22-.846H50.14a.776.776,0,0,0,.776-.776V7.281H60.7V22.952H53.79a.776.776,0,0,0,0,1.553h7.686a.776.776,0,0,0,.776-.776V3.356h0a.777.777,0,0,0-.777-.776ZM13.22,4.133h9.413v1.6H13.22Zm10.967-2.58H49.363V5.729H24.186ZM13.22,22.952V7.281h9.413V22.952ZM48.055,29.4l-.335-1.292a2.839,2.839,0,0,0-4.391-1.541,3.112,3.112,0,0,0-4.178-.877,3.071,3.071,0,0,0-4.09-1.317V18.517h7.062a.753.753,0,0,1,.752.753v1.491a.752.752,0,0,1-.752.752H37.874a.776.776,0,0,0,0,1.553h4.249a2.307,2.307,0,0,0,2.3-2.3V19.269a2.307,2.307,0,0,0-2.3-2.305H34.95a2.786,2.786,0,0,0-5.462.777V29.4h-5.3V7.281H49.363V29.4Zm2.86-23.668v-1.6H60.7v1.6Z" transform="translate(-11.667)" fill="#bb50eb"/>
    <path id="Path_1854" data-name="Path 1854" d="M213.011,28.036h-9a.776.776,0,0,0,0,1.553h9a.776.776,0,0,0,0-1.553Z" transform="translate(-183.402 -25.134)" fill="#bb50eb"/>
    <path id="Path_1855" data-name="Path 1855" d="M163.51,84.734h-6.13a.776.776,0,0,0-.776.776v3.546a.776.776,0,0,0,.776.776h6.13a.776.776,0,0,0,.776-.776V85.51A.776.776,0,0,0,163.51,84.734Zm-.776,3.546h-4.577V86.287h4.577Z" transform="translate(-141.6 -75.963)" fill="#bb50eb"/>
    <path id="Path_1856" data-name="Path 1856" d="M406.633,111.28h4.612a.776.776,0,1,0,0-1.553h-4.612a.776.776,0,0,0,0,1.553Z" transform="translate(-365.052 -98.369)" fill="#bb50eb"/>
    <path id="Path_1857" data-name="Path 1857" d="M411.245,143.544a.776.776,0,0,0,0-1.553h-4.612a.776.776,0,0,0,0,1.553Z" transform="translate(-365.052 -127.293)" fill="#bb50eb"/>
    <path id="Path_1858" data-name="Path 1858" d="M42.715,111.28h4.612a.776.776,0,0,0,0-1.553H42.715a.776.776,0,1,0,0,1.553Z" transform="translate(-38.805 -98.369)" fill="#bb50eb"/>
    <path id="Path_1859" data-name="Path 1859" d="M47.327,141.991H42.715a.776.776,0,0,0,0,1.553h4.612a.776.776,0,0,0,0-1.553Z" transform="translate(-38.805 -127.293)" fill="#bb50eb"/>
    <path id="Path_1860" data-name="Path 1860" d="M262.107,101.861h-8.236a.776.776,0,0,0,0,1.553h8.236a.776.776,0,0,0,0-1.553Z" transform="translate(-228.104 -91.317)" fill="#bb50eb"/>
  </g>
</svg>
