<svg xmlns="http://www.w3.org/2000/svg" width="62" height="62" viewBox="0 0 62 62">
  <g id="training" transform="translate(-1 -1)">
    <path id="Path_39396" data-name="Path 39396" d="M56.569,26.9l-2.412-.482a2,2,0,0,1-1.569-1.569l-.443-2.215A7.042,7.042,0,0,0,54.315,20H55a4,4,0,0,0,4-4,3.956,3.956,0,0,0-.815-2.393l.366-1.1A8.744,8.744,0,0,0,50.256,1H47.605A7.72,7.72,0,0,0,41.4,4.12l-.729.183a4.815,4.815,0,0,0-1.547.7H3V31h9.719l-1.5,6H1v2H63V34.738a8.02,8.02,0,0,0-6.431-7.843ZM27.219,31l1.5,6H18.281l1.5-6Zm2.062,0H33.94A7.951,7.951,0,0,0,33,34.738V37H30.781ZM35,34.738a6.015,6.015,0,0,1,4.823-5.883l.845-.169L44.447,37H35Zm9.294-7.473,1.861.93-2.576,2.061-.911-2a3.978,3.978,0,0,0,1.626-.987ZM48.279,31h-.558l-.394-1.181L48,29.281l.673.538Zm-2.306,1.081-.42,2.519-1.12-2.465,1.23-.984ZM47.847,33h.306l.667,4H47.18Zm2.18-.919.31-.93,1.23.984L50.447,34.6Zm3.305-3.828-.911,2L49.845,28.2l1.861-.93a4,4,0,0,0,1.626.987Zm-2.705-3.018c.02.1.054.195.081.292L48,26.882l-2.709-1.354c.027-.1.061-.192.081-.292L45.7,23.6a6.875,6.875,0,0,0,4.6,0ZM53,17a5,5,0,0,1-10,0V13.123a3,3,0,0,1,2.258-2.907A3,3,0,0,0,48,12h4a1,1,0,0,1,1,1Zm2,1h-.08A7.026,7.026,0,0,0,55,17V14a2,2,0,0,1,0,4ZM41.153,6.242l1.464-.366.214-.321A5.727,5.727,0,0,1,47.605,3h2.651a6.744,6.744,0,0,1,6.4,8.876l-.142.425A3.986,3.986,0,0,0,55,12h-.184A3,3,0,0,0,52,10H48a1,1,0,1,1,0-2h1V6H48a3,3,0,0,0-2.889,2.191l-.324.081A4.981,4.981,0,0,0,41.143,12H41a3.975,3.975,0,0,0-1.422.273A13.082,13.082,0,0,1,39,9a2.839,2.839,0,0,1,2.153-2.758ZM41,14v3a7.026,7.026,0,0,0,.08,1H41a2,2,0,0,1,0-4ZM5,7H37.448A4.814,4.814,0,0,0,37,9a16.717,16.717,0,0,0,.871,4.539A3.958,3.958,0,0,0,37,16a4,4,0,0,0,4,4h.685a7.042,7.042,0,0,0,2.17,2.628l-.443,2.215a2,2,0,0,1-1.569,1.569l-2.412.482A7.963,7.963,0,0,0,35.444,29H5Zm9.781,24h2.938l-1.5,6H13.281ZM61,37H51.553l3.779-8.314.845.169A6.016,6.016,0,0,1,61,34.738Z" fill="#ef1b23"/>
    <path id="Path_39397" data-name="Path 39397" d="M35,11H23v4H19V9H7V21h6v6H27V21h8ZM9,11h8v8H9ZM25,25H15V21h4V17h6Zm8-6H27V15H25V13h8Z" fill="#ef1b23"/>
    <path id="Path_39398" data-name="Path 39398" d="M56.489,53.352A7.022,7.022,0,0,0,59,48V47a6.006,6.006,0,0,0-6-6H51a6.006,6.006,0,0,0-6,6v1a7.023,7.023,0,0,0,2.51,5.352,8.962,8.962,0,0,0-5.517,4.53,9.034,9.034,0,0,0-5.5-4.523A6.986,6.986,0,0,0,39,48V47a6.006,6.006,0,0,0-6-6H31a6.006,6.006,0,0,0-6,6v1a6.986,6.986,0,0,0,2.506,5.359,9.03,9.03,0,0,0-5.5,4.53,9.041,9.041,0,0,0-5.5-4.536A6.985,6.985,0,0,0,19,48V46a5.006,5.006,0,0,0-5-5H7a2,2,0,0,0-2,2v5a6.986,6.986,0,0,0,2.506,5.359A9.01,9.01,0,0,0,1,62v1H63V62A8.973,8.973,0,0,0,56.489,53.352ZM54,55a2,2,0,0,1-4,0,1.97,1.97,0,0,1,.039-.289,6.8,6.8,0,0,0,3.922,0A1.97,1.97,0,0,1,54,55Zm-7-7V47a4,4,0,0,1,4-4h2a4,4,0,0,1,4,4v1a5,5,0,0,1-10,0ZM27,48V47a4,4,0,0,1,4-4h2a4,4,0,0,1,4,4v1a5,5,0,0,1-10,0Zm3,7h4a7.006,7.006,0,0,1,6.92,6H23.08A7.006,7.006,0,0,1,30,55ZM7,48V43h7a3,3,0,0,1,3,3v2A5,5,0,0,1,7,48ZM3.071,61A7.011,7.011,0,0,1,10,55h4a7.011,7.011,0,0,1,6.929,6Zm40.007,0a6.973,6.973,0,0,1,4.95-5.718,3.98,3.98,0,0,0,7.943,0A6.976,6.976,0,0,1,60.929,61Z" fill="#ef1b23"/>
  </g>
</svg>
